# Vandal Magazine | barrel +X up +Y | length=4u
mtllib Foresaken Vandal (White).mtl
g mag_body
v -0.206283 -0.016908 0.000103
v -0.219528 -0.008948 0.012508
v -0.219528 -0.016919 0.012508
v -0.230583 -0.016927 0.016529
v -0.230606 -0.001247 0.013483
v -0.350155 -0.001248 0.014234
v -0.370771 -0.017077 0.021318
v -0.481273 -0.031599 0.006758
v -0.496267 -0.031599 -0.024873
v -0.496267 -0.031599 -0.011606
v -0.481272 -0.031599 -0.043237
v -0.451589 -0.031599 -0.054352
v -0.451589 -0.031599 0.017913
v -0.424237 -0.031599 -0.056926
v -0.424237 -0.031599 0.022167
v -0.389686 -0.031599 -0.025605
v -0.389686 -0.031599 -0.056941
v -0.389686 -0.031599 0.022160
v -0.231205 -0.031599 -0.056941
v -0.201578 -0.031599 -0.030847
v -0.210256 -0.031599 -0.048263
v -0.201578 -0.031599 -0.025605
v -0.372162 -0.016908 -0.009386
v -0.370771 -0.017077 0.021318
v -0.208717 -0.016908 -0.009386
v -0.201578 -0.031599 -0.006653
v -0.206283 -0.016908 0.000103
v -0.350413 -0.001248 0.000575
v -0.350155 -0.001248 0.014234
v -0.230606 -0.001247 0.000575
v -0.219528 -0.008948 0.012508
v -0.230606 -0.001247 0.013483
v -0.507796 -0.044015 -0.018267
v -0.475277 -0.004383 0.014966
v -0.507024 -0.005491 -0.018267
v -0.478213 -0.045040 0.017087
v -0.509934 -0.075791 -0.018267
v -0.462997 -0.048509 0.030627
v -0.456137 -0.002560 0.022964
v -0.480862 -0.074237 0.017659
v -0.409305 -0.023092 0.035577
v -0.405693 0.008006 0.023244
v -0.465880 -0.073984 0.031207
v -0.484980 -0.102099 0.017405
v -0.512790 -0.106853 -0.018267
v -0.470916 -0.100171 0.030839
v -0.491741 -0.129400 0.016700
v -0.517751 -0.136821 -0.018267
v -0.478958 -0.126036 0.029736
v -0.500387 -0.153371 0.014509
v -0.523916 -0.161102 -0.018267
v -0.489936 -0.150167 0.026202
v -0.509621 -0.174869 0.013154
v -0.534672 -0.183195 -0.018267
v -0.498351 -0.166915 0.021929
v -0.528352 -0.193920 0.015558
v -0.554525 -0.206083 -0.018267
v -0.504203 -0.184764 0.026590
v -0.486753 -0.178055 0.030224
v -0.529834 -0.203560 0.014766
v -0.557192 -0.217867 -0.018267
v -0.563443 -0.224595 -0.018267
v -0.506741 -0.196072 0.025751
v -0.534770 -0.211462 0.023108
v -0.538028 -0.229751 0.022391
v -0.565015 -0.242943 -0.018267
v -0.559175 -0.247410 -0.018267
v -0.510537 -0.203103 0.037906
v -0.512873 -0.221838 0.038715
v -0.532044 -0.233098 0.020619
v -0.544853 -0.283414 0.021567
v -0.568381 -0.297302 -0.018267
v -0.512031 -0.225791 0.033239
v -0.570293 -0.342124 0.021658
v -0.588722 -0.347673 -0.018267
v -0.524889 -0.285297 0.038654
v -0.548841 -0.345182 0.041316
v -0.613134 -0.408744 0.021544
v -0.622908 -0.403863 -0.018267
v -0.673381 -0.451043 -0.018267
v -0.588402 -0.413515 0.042195
v -0.661802 -0.466273 0.021211
v -0.637143 -0.477262 0.042776
v -0.715569 -0.516289 0.017970
v -0.739009 -0.497884 -0.018267
v -0.675932 -0.533103 0.046744
v -0.618678 -0.488880 0.034062
v -0.737061 -0.529448 0.010815
v -0.759125 -0.517509 -0.018267
v -0.573552 -0.420206 0.034062
v -0.768756 -0.558770 0.003143
v -0.790257 -0.554852 -0.018267
v -0.534002 -0.351819 0.034062
v -0.739333 -0.554490 -0.018267
v -0.736367 -0.559750 -0.018267
v -0.761984 -0.569620 -0.018267
v -0.720992 -0.551813 0.029939
v -0.773175 -0.621496 -0.018267
v -0.795260 -0.593029 -0.005312
v -0.785897 -0.595600 -0.018267
v -0.811549 -0.592036 -0.018267
v -0.805194 -0.617582 -0.018267
v -0.822224 -0.633949 -0.018267
v -0.754281 -0.626204 0.038570
v -0.695225 -0.611739 0.054197
v -0.783103 -0.684187 0.021258
v -0.797072 -0.681100 -0.018267
v -0.814990 -0.738797 -0.018267
v -0.698533 -0.668572 0.055323
v -0.772256 -0.739856 0.006966
v -0.795461 -0.749485 -0.018267
v -0.775695 -0.762962 -0.018267
v -0.738079 -0.746694 0.025797
v -0.750191 -0.809981 -0.018267
v -0.657786 -0.613372 0.034101
v -0.707715 -0.786226 0.035484
v -0.651676 -0.546869 0.034062
v -0.692411 -0.836738 0.035714
v -0.727426 -0.863513 -0.018267
v -0.662024 -0.926218 0.017158
v -0.681527 -0.939387 -0.018267
v -0.627561 -1.013049 -0.018267
v -0.660214 -0.830215 0.051726
v -0.642774 -0.921745 0.027646
v -0.624372 -0.932009 0.013200
v -0.676869 -0.770011 0.053373
v -0.617978 -0.868918 0.032789
v -0.628587 -0.772440 0.034907
v -0.690900 -0.721876 0.054720
v -0.637016 -0.718434 0.034107
v -0.648986 -0.666334 0.034397
v -0.608374 -0.711418 0.041641
v -0.619246 -0.657639 0.042812
v -0.585047 -0.783892 0.034074
v -0.626443 -0.602296 0.042914
v -0.590817 -0.702750 0.034229
v -0.592775 -0.655260 0.034332
v -0.623127 -0.548923 0.042866
v -0.593941 -0.589545 0.035495
v -0.594693 -0.494161 0.042855
v -0.592685 -0.554879 0.035321
v -0.580879 -0.634030 0.035086
v -0.552232 -0.424395 0.042848
v -0.572936 -0.499840 0.035242
v -0.572853 -0.594667 0.042722
v -0.553496 -0.509566 0.043053
v -0.531062 -0.428974 0.035239
v -0.512892 -0.353938 0.042776
v -0.505480 -0.289454 0.034062
v -0.489794 -0.355299 0.035220
v -0.482489 -0.286520 0.042537
v -0.483428 -0.222100 0.034062
v -0.510761 -0.433687 0.043099
v -0.484583 -0.213336 0.044404
v -0.486722 -0.194230 0.042444
v -0.457136 -0.205011 0.045352
v -0.485335 -0.187137 0.027690
v -0.458768 -0.183522 0.043120
v -0.458402 -0.175736 0.029945
v -0.455726 -0.207142 0.042027
v -0.428214 -0.197346 0.045143
v -0.456796 -0.284497 0.035172
v -0.427220 -0.205183 0.035084
v -0.468435 -0.359054 0.042897
v -0.434549 -0.285462 0.042422
v -0.402225 -0.195854 0.041512
v -0.412238 -0.160916 0.039861
v -0.402117 -0.190427 0.044680
v -0.378930 -0.193603 0.045329
v -0.377296 -0.170091 0.037111
v -0.384041 -0.204202 0.034909
v -0.323443 -0.203113 0.047108
v -0.410853 -0.291021 0.034900
v -0.326618 -0.212234 0.035067
v -0.330376 -0.250204 0.034384
v -0.441340 -0.362519 0.034900
v -0.381813 -0.317527 0.034871
v -0.296446 -0.227871 0.033512
v -0.488864 -0.442384 0.034899
v -0.280302 -0.221612 0.037803
v -0.295544 -0.299313 0.040901
v -0.261540 -0.260498 0.036325
v -0.273445 -0.213475 0.047465
v -0.232440 -0.237154 0.032235
v -0.243788 -0.280310 0.027150
v -0.307698 -0.182820 0.037201
v -0.221968 -0.229739 0.040994
v -0.301372 -0.144469 0.041416
v -0.222132 -0.241251 0.023006
v -0.346806 -0.106037 0.033556
v -0.289855 -0.161511 0.040667
v -0.409558 -0.150536 0.029079
v -0.263837 -0.194103 0.037425
v -0.455309 -0.158529 0.032878
v -0.424264 -0.131052 0.033258
v -0.398255 -0.096797 0.033258
v -0.370890 -0.053823 0.033258
v -0.349032 -0.003027 0.033258
v -0.327423 0.033252 0.008645
v -0.287421 -0.028394 0.035580
v -0.284577 -0.003027 0.033258
v -0.278530 0.033252 0.008645
v -0.226933 -0.003027 0.033258
v -0.228236 0.033252 0.008645
v -0.211995 0.014539 0.007558
v -0.195915 0.000361 0.003393
v -0.301505 -0.096489 0.039025
v -0.225931 -0.034107 0.033258
v -0.278985 -0.131493 0.035895
v -0.287573 -0.093702 0.035633
v -0.199707 -0.037992 0.006652
v -0.164463 -0.008344 -0.018267
v -0.173600 -0.043805 -0.018267
v -0.224125 -0.085947 0.032837
v -0.206044 -0.089586 0.006899
v -0.187849 -0.093648 -0.018267
v -0.221811 -0.120207 0.030733
v -0.208439 -0.125555 0.006540
v -0.194868 -0.129566 -0.018267
v -0.261525 -0.161747 0.036262
v -0.217286 -0.148311 0.027788
v -0.207330 -0.156476 0.005787
v -0.197180 -0.161631 -0.018267
v -0.208070 -0.182732 0.013879
v -0.204487 -0.189018 0.004398
v -0.197189 -0.196976 -0.018267
v -0.206418 -0.218631 -0.018267
v -0.213790 -0.215363 0.022344
v -0.201492 -0.237625 -0.018267
v -0.219898 -0.212230 0.031870
v -0.210677 -0.234220 0.030313
v -0.213239 -0.242660 -0.018267
v -0.230992 -0.291439 0.010081
v -0.258999 -0.186767 0.038806
v -0.226369 -0.292642 -0.018267
v -0.250764 -0.352071 0.015304
v -0.243838 -0.355138 -0.018267
v -0.269751 -0.332874 0.032689
v -0.282462 -0.434367 0.018732
v -0.274180 -0.439887 -0.018267
v -0.305704 -0.405573 0.037291
v -0.335540 -0.363834 0.044021
v -0.325837 -0.523618 0.018936
v -0.317600 -0.528042 -0.018267
v -0.342669 -0.491893 0.038631
v -0.369679 -0.466523 0.044308
v -0.434667 -0.446119 0.034892
v -0.410255 -0.561691 0.044317
v -0.387967 -0.580953 0.037635
v -0.367835 -0.596132 0.017751
v -0.360257 -0.599507 -0.018267
v -0.480101 -0.539151 0.034911
v -0.422144 -0.671092 0.011493
v -0.417445 -0.674420 -0.018267
v -0.528400 -0.512552 0.034899
v -0.526811 -0.544338 0.034899
v -0.450107 -0.638630 0.044318
v -0.514850 -0.615849 0.035078
v -0.555456 -0.593909 0.034899
v -0.555626 -0.686374 0.034899
v -0.491098 -0.706686 0.043884
v -0.543803 -0.776475 0.040796
v -0.434422 -0.659039 0.032304
v -0.480706 -0.725263 0.028927
v -0.475064 -0.736531 0.008936
v -0.472476 -0.739893 -0.018267
v -0.519323 -0.790932 -0.018267
v -0.537791 -0.791049 0.026852
v -0.533466 -0.800131 0.011641
v -0.537488 -0.844271 -0.018267
v -0.586285 -0.827609 0.037230
v -0.576429 -0.835204 0.026921
v -0.604161 -0.863768 0.026445
v -0.569392 -0.834336 0.019394
v -0.548277 -0.844482 0.019520
v -0.575919 -0.889112 0.019289
v -0.568710 -0.897964 -0.018267
v -0.599694 -0.939288 0.005465
v -0.595615 -0.946906 -0.018267
v -0.475277 -0.004383 -0.051500
v -0.507796 -0.044015 -0.018267
v -0.507024 -0.005491 -0.018267
v -0.478213 -0.045040 -0.053621
v -0.509934 -0.075791 -0.018267
v -0.462997 -0.048509 -0.067161
v -0.456137 -0.002560 -0.059498
v -0.480862 -0.074237 -0.054194
v -0.409305 -0.023092 -0.072111
v -0.405693 0.008006 -0.059778
v -0.465880 -0.073984 -0.067741
v -0.484980 -0.102099 -0.053939
v -0.512790 -0.106853 -0.018267
v -0.470916 -0.100171 -0.067374
v -0.491741 -0.129400 -0.053234
v -0.517751 -0.136821 -0.018267
v -0.478958 -0.126036 -0.066270
v -0.500387 -0.153371 -0.051043
v -0.523916 -0.161102 -0.018267
v -0.489936 -0.150167 -0.062736
v -0.509621 -0.174869 -0.049688
v -0.534672 -0.183195 -0.018267
v -0.498351 -0.166915 -0.058464
v -0.528352 -0.193920 -0.052092
v -0.554525 -0.206083 -0.018267
v -0.504203 -0.184764 -0.063125
v -0.486753 -0.178055 -0.066758
v -0.529834 -0.203560 -0.051300
v -0.557192 -0.217867 -0.018267
v -0.563443 -0.224595 -0.018267
v -0.506741 -0.196072 -0.062285
v -0.534770 -0.211462 -0.059643
v -0.538028 -0.229751 -0.058925
v -0.565015 -0.242943 -0.018267
v -0.559175 -0.247410 -0.018267
v -0.510537 -0.203103 -0.074440
v -0.512873 -0.221838 -0.075249
v -0.532044 -0.233098 -0.057153
v -0.544853 -0.283414 -0.058102
v -0.568381 -0.297302 -0.018267
v -0.512031 -0.225791 -0.069774
v -0.570293 -0.342124 -0.058192
v -0.588722 -0.347673 -0.018267
v -0.524889 -0.285297 -0.075188
v -0.548841 -0.345182 -0.077850
v -0.613134 -0.408744 -0.058078
v -0.622908 -0.403863 -0.018267
v -0.673381 -0.451043 -0.018267
v -0.588402 -0.413515 -0.078729
v -0.661802 -0.466273 -0.057745
v -0.637144 -0.477262 -0.079311
v -0.715569 -0.516289 -0.054504
v -0.739009 -0.497884 -0.018267
v -0.675932 -0.533103 -0.083278
v -0.618678 -0.488880 -0.070596
v -0.737061 -0.529448 -0.047349
v -0.759125 -0.517509 -0.018267
v -0.573552 -0.420206 -0.070596
v -0.768756 -0.558770 -0.039678
v -0.790257 -0.554852 -0.018267
v -0.534002 -0.351819 -0.070596
v -0.739333 -0.554490 -0.018267
v -0.736367 -0.559750 -0.018267
v -0.761984 -0.569620 -0.018267
v -0.720992 -0.551813 -0.066473
v -0.773175 -0.621496 -0.018267
v -0.795260 -0.593029 -0.031222
v -0.785897 -0.595600 -0.018267
v -0.811549 -0.592036 -0.018267
v -0.805194 -0.617582 -0.018267
v -0.822224 -0.633949 -0.018267
v -0.754281 -0.626204 -0.075104
v -0.695225 -0.611739 -0.090732
v -0.783103 -0.684187 -0.057792
v -0.797072 -0.681100 -0.018267
v -0.814990 -0.738797 -0.018267
v -0.698533 -0.668572 -0.091857
v -0.772256 -0.739856 -0.043500
v -0.795461 -0.749485 -0.018267
v -0.775695 -0.762962 -0.018267
v -0.738079 -0.746694 -0.062331
v -0.750191 -0.809981 -0.018267
v -0.657786 -0.613372 -0.070636
v -0.707715 -0.786226 -0.072018
v -0.651676 -0.546869 -0.070596
v -0.692411 -0.836738 -0.072248
v -0.727426 -0.863513 -0.018267
v -0.623127 -0.548923 -0.079400
v -0.662024 -0.926218 -0.053692
v -0.681527 -0.939387 -0.018267
v -0.627561 -1.013049 -0.018267
v -0.660214 -0.830215 -0.088260
v -0.642774 -0.921745 -0.064181
v -0.624372 -0.932009 -0.049734
v -0.676869 -0.770011 -0.089907
v -0.617978 -0.868918 -0.069324
v -0.690900 -0.721876 -0.091255
v -0.628587 -0.772440 -0.071441
v -0.637016 -0.718434 -0.070641
v -0.648986 -0.666334 -0.070931
v -0.608374 -0.711418 -0.078175
v -0.619246 -0.657639 -0.079346
v -0.585047 -0.783892 -0.070608
v -0.626443 -0.602296 -0.079448
v -0.590817 -0.702750 -0.070763
v -0.592775 -0.655260 -0.070867
v -0.593941 -0.589545 -0.072029
v -0.555626 -0.686374 -0.071433
v -0.580879 -0.634030 -0.071620
v -0.572853 -0.594667 -0.079256
v -0.592685 -0.554879 -0.071855
v -0.594693 -0.494161 -0.079389
v -0.572936 -0.499840 -0.071776
v -0.552232 -0.424395 -0.079382
v -0.553496 -0.509566 -0.079587
v -0.531062 -0.428974 -0.071773
v -0.512892 -0.353938 -0.079310
v -0.505480 -0.289454 -0.070596
v -0.489794 -0.355299 -0.071754
v -0.482489 -0.286520 -0.079071
v -0.483428 -0.222100 -0.070596
v -0.510761 -0.433687 -0.079634
v -0.456796 -0.284497 -0.071706
v -0.528400 -0.512552 -0.071433
v -0.468435 -0.359054 -0.079432
v -0.488864 -0.442384 -0.071433
v -0.526811 -0.544338 -0.071433
v -0.480101 -0.539151 -0.071446
v -0.555456 -0.593909 -0.071433
v -0.514850 -0.615849 -0.071612
v -0.491098 -0.706686 -0.080418
v -0.450107 -0.638630 -0.080853
v -0.543803 -0.776475 -0.077330
v -0.434422 -0.659039 -0.068838
v -0.586285 -0.827609 -0.073764
v -0.480706 -0.725263 -0.065461
v -0.537791 -0.791049 -0.063386
v -0.604161 -0.863768 -0.062980
v -0.576429 -0.835204 -0.063455
v -0.575919 -0.889112 -0.055824
v -0.569392 -0.834336 -0.055928
v -0.533466 -0.800131 -0.048176
v -0.475064 -0.736531 -0.045470
v -0.548277 -0.844482 -0.056054
v -0.537488 -0.844271 -0.018267
v -0.519323 -0.790932 -0.018267
v -0.568710 -0.897964 -0.018267
v -0.472476 -0.739893 -0.018267
v -0.417445 -0.674420 -0.018267
v -0.599694 -0.939288 -0.041999
v -0.595615 -0.946906 -0.018267
v -0.422144 -0.671092 -0.048027
v -0.360257 -0.599507 -0.018267
v -0.367835 -0.596132 -0.054286
v -0.317600 -0.528042 -0.018267
v -0.387967 -0.580953 -0.074169
v -0.325837 -0.523618 -0.055470
v -0.274180 -0.439887 -0.018267
v -0.410255 -0.561691 -0.080851
v -0.342669 -0.491893 -0.075165
v -0.282462 -0.434367 -0.055266
v -0.243838 -0.355138 -0.018267
v -0.369679 -0.466523 -0.080842
v -0.250764 -0.352071 -0.051838
v -0.226369 -0.292642 -0.018267
v -0.305704 -0.405573 -0.073825
v -0.230992 -0.291439 -0.046615
v -0.213239 -0.242660 -0.018267
v -0.269751 -0.332874 -0.069223
v -0.335540 -0.363834 -0.080555
v -0.434667 -0.446119 -0.071426
v -0.441340 -0.362519 -0.071434
v -0.381813 -0.317527 -0.071405
v -0.295544 -0.299313 -0.077436
v -0.434549 -0.285462 -0.078956
v -0.410853 -0.291021 -0.071434
v -0.330376 -0.250204 -0.070918
v -0.384041 -0.204202 -0.071443
v -0.427220 -0.205183 -0.071619
v -0.296446 -0.227871 -0.070046
v -0.402225 -0.195854 -0.078046
v -0.455726 -0.207142 -0.078562
v -0.428214 -0.197346 -0.081678
v -0.457136 -0.205011 -0.081886
v -0.484583 -0.213336 -0.080938
v -0.486722 -0.194230 -0.078978
v -0.458768 -0.183522 -0.079654
v -0.485335 -0.187137 -0.064224
v -0.458402 -0.175736 -0.066479
v -0.412238 -0.160916 -0.076395
v -0.455309 -0.158529 -0.069412
v -0.409558 -0.150536 -0.065614
v -0.424264 -0.131052 -0.069792
v -0.398255 -0.096797 -0.069792
v -0.346806 -0.106037 -0.070090
v -0.370890 -0.053823 -0.069792
v -0.349032 -0.003027 -0.069792
v -0.327423 0.033252 -0.045179
v -0.287421 -0.028394 -0.072114
v -0.284577 -0.003027 -0.069792
v -0.278530 0.033252 -0.045179
v -0.226933 -0.003027 -0.069792
v -0.228236 0.033252 -0.045179
v -0.211995 0.014539 -0.044092
v -0.195916 0.000361 -0.039927
v -0.199707 -0.037992 -0.043186
v -0.164463 -0.008344 -0.018267
v -0.173600 -0.043805 -0.018267
v -0.225931 -0.034107 -0.069792
v -0.206044 -0.089586 -0.043434
v -0.187849 -0.093648 -0.018267
v -0.224125 -0.085947 -0.069371
v -0.287573 -0.093702 -0.072167
v -0.208439 -0.125555 -0.043074
v -0.194868 -0.129566 -0.018267
v -0.221811 -0.120207 -0.067267
v -0.207330 -0.156476 -0.042321
v -0.197180 -0.161631 -0.018267
v -0.217287 -0.148311 -0.064322
v -0.204487 -0.189018 -0.040932
v -0.197189 -0.196976 -0.018267
v -0.206418 -0.218631 -0.018267
v -0.208070 -0.182732 -0.050413
v -0.213790 -0.215363 -0.058879
v -0.201492 -0.237625 -0.018267
v -0.261525 -0.161747 -0.072796
v -0.219898 -0.212230 -0.068405
v -0.210677 -0.234220 -0.066847
v -0.222132 -0.241251 -0.059540
v -0.221968 -0.229739 -0.077528
v -0.243788 -0.280310 -0.063684
v -0.232440 -0.237154 -0.068769
v -0.261540 -0.260498 -0.072859
v -0.273445 -0.213475 -0.084000
v -0.280302 -0.221612 -0.074337
v -0.326618 -0.212234 -0.071602
v -0.323443 -0.203113 -0.083642
v -0.378930 -0.193603 -0.081863
v -0.307698 -0.182820 -0.073735
v -0.402117 -0.190427 -0.081214
v -0.377296 -0.170091 -0.073646
v -0.263837 -0.194103 -0.073960
v -0.301372 -0.144469 -0.077950
v -0.258999 -0.186767 -0.075340
v -0.289855 -0.161511 -0.077201
v -0.278985 -0.131493 -0.072429
v -0.301505 -0.096489 -0.075559
v -0.199848 -0.008344 -0.018267
v -0.195915 0.000361 0.003393
v -0.164463 -0.008344 -0.018267
v -0.205993 -0.024606 0.002904
v -0.201318 -0.032202 -0.018267
v -0.207919 -0.001652 -0.000288
v -0.211995 0.014539 0.007558
v -0.212316 -0.016396 0.012425
v -0.217904 0.011093 0.002850
v -0.222522 -0.016310 0.019239
v -0.230634 0.028176 0.003287
v -0.228236 0.033252 0.008645
v -0.278428 -0.016310 0.022363
v -0.278530 0.033252 0.008645
v -0.278428 0.028230 0.003236
v -0.327452 0.028228 0.003237
v -0.337356 -0.016310 0.022374
v -0.327423 0.033252 0.008645
v -0.404952 0.006249 0.016861
v -0.387972 -0.035311 0.019483
v -0.405693 0.008006 0.023244
v -0.453444 -0.035311 0.017478
v -0.453444 -0.003766 0.016963
v -0.456137 -0.002560 0.022964
v -0.471370 -0.006055 0.009928
v -0.471370 -0.035311 0.009992
v -0.475277 -0.004383 0.014966
v -0.497025 -0.007909 -0.018267
v -0.497025 -0.035311 -0.018267
v -0.507024 -0.005491 -0.018267
v -0.199848 -0.008344 -0.018267
v -0.164463 -0.008344 -0.018267
v -0.195916 0.000361 -0.039927
v -0.205993 -0.033933 -0.039438
v -0.201318 -0.032202 -0.018267
v -0.207919 -0.001652 -0.036246
v -0.211995 0.014539 -0.044092
v -0.212316 -0.034536 -0.048959
v -0.217904 0.011093 -0.039384
v -0.222522 -0.034869 -0.055773
v -0.230634 0.028176 -0.039821
v -0.228236 0.033252 -0.045179
v -0.278428 -0.034869 -0.058897
v -0.278530 0.033252 -0.045179
v -0.278428 0.028230 -0.039770
v -0.327452 0.028228 -0.039771
v -0.337356 -0.034869 -0.058909
v -0.327423 0.033252 -0.045179
v -0.404952 0.006249 -0.053395
v -0.387972 -0.035311 -0.056017
v -0.405693 0.008006 -0.059778
v -0.453444 -0.035311 -0.054013
v -0.453444 -0.003766 -0.053497
v -0.456137 -0.002560 -0.059498
v -0.471370 -0.006055 -0.046462
v -0.471370 -0.035311 -0.046526
v -0.475277 -0.004383 -0.051500
v -0.497025 -0.007909 -0.018267
v -0.497025 -0.035311 -0.018267
v -0.507024 -0.005491 -0.018267
vt 0.2939453125 0.3173828125
vt 0.28515625 0.3212890625
vt 0.28515625 0.3173828125
vt 0.27978515625 0.3173828125
vt 0.27978515625 0.32568359375
vt 0.2225341796875 0.32568359375
vt 0.2125244140625 0.3173828125
vt 0.005947113037109375 0.333984375
vt 0.004146575927734375 0.33935546875
vt 0.00390625 0.33740234375
vt 0.006717681884765625 0.341796875
vt 0.01141357421875 0.34326171875
vt 0.01041412353515625 0.33203125
vt 0.01561737060546875 0.34326171875
vt 0.01464080810546875 0.33056640625
vt 0.0206756591796875 0.33837890625
vt 0.0207672119140625 0.34326171875
vt 0.0199737548828125 0.33056640625
vt 0.04559326171875 0.34326171875
vt 0.050262451171875 0.33935546875
vt 0.048858642578125 0.34228515625
vt 0.050262451171875 0.3388671875
vt 0.023834228515625 0.33544921875
vt 0.0234222412109375 0.33056640625
vt 0.04913330078125 0.33544921875
vt 0.05157470703125 0.3359375
vt 0.049896240234375 0.333984375
vt 0.027435302734375 0.33251953125
vt 0.02734375 0.33056640625
vt 0.045684814453125 0.33251953125
vt 0.048126220703125 0.33154296875
vt 0.045867919921875 0.33056640625
vt 0.84423828125 0.3642578125
vt 0.8623046875 0.380859375
vt 0.84423828125 0.37939453125
vt 0.86279296875 0.365234375
vt 0.84423828125 0.3515625
vt 0.87060546875 0.36474609375
vt 0.87060546875 0.3828125
vt 0.86279296875 0.353515625
vt 0.890625 0.37841796875
vt 0.89013671875 0.3916015625
vt 0.87060546875 0.35498046875
vt 0.8623046875 0.34228515625
vt 0.84423828125 0.33837890625
vt 0.8701171875 0.34423828125
vt 0.86181640625 0.3310546875
vt 0.84423828125 0.32568359375
vt 0.86865234375 0.33349609375
vt 0.85986328125 0.32080078125
vt 0.84423828125 0.314453125
vt 0.8662109375 0.3232421875
vt 0.85888671875 0.31103515625
vt 0.84423828125 0.30419921875
vt 0.86376953125 0.3154296875
vt 0.857421875 0.30029296875
vt 0.84423828125 0.2919921875
vt 0.865234375 0.3076171875
vt 0.87109375 0.3125
vt 0.85791015625 0.29638671875
vt 0.84423828125 0.287109375
vt 0.84423828125 0.283203125
vt 0.86572265625 0.302734375
vt 0.85986328125 0.2919921875
vt 0.8603515625 0.2841796875
vt 0.84423828125 0.27587890625
vt 0.84423828125 0.2734375
vt 0.8681640625 0.2978515625
vt 0.86962890625 0.2900390625
vt 0.86181640625 0.2822265625
vt 0.861328125 0.26025390625
vt 0.84423828125 0.25146484375
vt 0.8701171875 0.28759765625
vt 0.86083984375 0.23291015625
vt 0.84423828125 0.2275390625
vt 0.87158203125 0.26220703125
vt 0.87158203125 0.23583984375
vt 0.85986328125 0.19970703125
vt 0.84423828125 0.19921875
vt 0.84423828125 0.17138671875
vt 0.87109375 0.203125
vt 0.8583984375 0.16845703125
vt 0.8701171875 0.17041015625
vt 0.85009765625 0.13818359375
vt 0.83251953125 0.14306640625
vt 0.86962890625 0.14306640625
vt 0.87841796875 0.1708984375
vt 0.841796875 0.13037109375
vt 0.82763671875 0.134765625
vt 0.8779296875 0.20361328125
vt 0.82958984375 0.11767578125
vt 0.818359375 0.11962890625
vt 0.87841796875 0.23583984375
vt 0.841796875 0.115234375
vt 0.84375 0.1142578125
vt 0.83447265625 0.10986328125
vt 0.859375 0.1259765625
vt 0.8486328125 0.0869140625
vt 0.8193359375 0.1044921875
vt 0.82421875 0.10107421875
vt 0.8115234375 0.10498046875
vt 0.81591796875 0.09423828125
vt 0.80859375 0.0888671875
vt 0.86865234375 0.095703125
vt 0.8828125 0.11376953125
vt 0.8720703125 0.07080078125
vt 0.8583984375 0.06298828125
vt 0.8701171875 0.04296875
vt 0.89453125 0.09619140625
vt 0.88525390625 0.0537109375
vt 0.87890625 0.0419921875
vt 0.8876953125 0.04052734375
vt 0.8984375 0.060546875
vt 0.90576171875 0.03173828125
vt 0.89501953125 0.123046875
vt 0.91650390625 0.056640625
vt 0.88134765625 0.14453125
vt 0.93310546875 0.0458984375
vt 0.92578125 0.0205078125
vt 0.9619140625 0.025390625
vt 0.95849609375 0.009765625
vt 0.994140625 0.00537109375
vt 0.94091796875 0.05615234375
vt 0.96630859375 0.0322265625
vt 0.9755859375 0.03271484375
vt 0.9228515625 0.06982421875
vt 0.962890625 0.0537109375
vt 0.93896484375 0.0810546875
vt 0.908203125 0.0810546875
vt 0.92431640625 0.09521484375
vt 0.9091796875 0.1083984375
vt 0.931640625 0.10400390625
vt 0.916015625 0.1181640625
vt 0.95458984375 0.0869140625
vt 0.90185546875 0.13330078125
vt 0.93505859375 0.1103515625
vt 0.923828125 0.12451171875
vt 0.890625 0.15087890625
vt 0.90869140625 0.14453125
vt 0.88720703125 0.17431640625
vt 0.9013671875 0.15576171875
vt 0.92236328125 0.13330078125
vt 0.88623046875 0.20654296875
vt 0.8955078125 0.17724609375
vt 0.916015625 0.1474609375
vt 0.90380859375 0.17822265625
vt 0.89404296875 0.208984375
vt 0.88623046875 0.23876953125
vt 0.87939453125 0.263671875
vt 0.89501953125 0.24169921875
vt 0.8876953125 0.26806640625
vt 0.8798828125 0.2919921875
vt 0.90234375 0.21142578125
vt 0.87841796875 0.296875
vt 0.87548828125 0.3037109375
vt 0.88720703125 0.302734375
vt 0.87255859375 0.30908203125
vt 0.88427734375 0.31103515625
vt 0.88134765625 0.31640625
vt 0.88818359375 0.3017578125
vt 0.896484375 0.3095703125
vt 0.89697265625 0.27294921875
vt 0.8984375 0.3056640625
vt 0.9033203125 0.244140625
vt 0.9052734375 0.275390625
vt 0.90673828125 0.3125
vt 0.8994140625 0.3251953125
vt 0.90625 0.31494140625
vt 0.9150390625 0.31689453125
vt 0.9130859375 0.326171875
vt 0.91455078125 0.31103515625
vt 0.9365234375 0.31982421875
vt 0.91455078125 0.27685546875
vt 0.9365234375 0.314453125
vt 0.9384765625 0.30078125
vt 0.91357421875 0.24755859375
vt 0.927734375 0.271484375
vt 0.94873046875 0.31201171875
vt 0.9111328125 0.21240234375
vt 0.95361328125 0.31640625
vt 0.95654296875 0.2880859375
vt 0.96484375 0.3046875
vt 0.955078125 0.3212890625
vt 0.97216796875 0.3154296875
vt 0.97412109375 0.30029296875
vt 0.9404296875 0.3291015625
vt 0.9736328125 0.3203125
vt 0.93994140625 0.34375
vt 0.97802734375 0.31494140625
vt 0.91943359375 0.35302734375
vt 0.94580078125 0.3388671875
vt 0.89794921875 0.33056640625
vt 0.95751953125 0.32958984375
vt 0.880859375 0.3232421875
vt 0.890625 0.3369140625
vt 0.89892578125 0.35205078125
vt 0.9072265625 0.3701171875
vt 0.9130859375 0.390625
vt 0.91943359375 0.4091796875
vt 0.9384765625 0.38623046875
vt 0.9384765625 0.3955078125
vt 0.93896484375 0.412109375
vt 0.9609375 0.39892578125
vt 0.95947265625 0.4150390625
vt 0.96826171875 0.4091796875
vt 0.97705078125 0.40478515625
vt 0.93701171875 0.3603515625
vt 0.96337890625 0.38818359375
vt 0.9482421875 0.35009765625
vt 0.9423828125 0.36279296875
vt 0.97900390625 0.39013671875
vt 0.994140625 0.40478515625
vt 0.994140625 0.390625
vt 0.9677734375 0.3701171875
vt 0.98095703125 0.37109375
vt 0.994140625 0.37109375
vt 0.970703125 0.3583984375
vt 0.98193359375 0.3583984375
vt 0.994140625 0.35791015625
vt 0.95654296875 0.34130859375
vt 0.9736328125 0.34912109375
vt 0.9833984375 0.34716796875
vt 0.994140625 0.34619140625
vt 0.98095703125 0.337890625
vt 0.9853515625 0.33642578125
vt 0.994140625 0.33447265625
vt 0.994140625 0.326171875
vt 0.97900390625 0.32666015625
vt 0.994140625 0.3193359375
vt 0.974609375 0.32666015625
vt 0.97802734375 0.31982421875
vt 0.994140625 0.31494140625
vt 0.98291015625 0.2978515625
vt 0.958984375 0.33251953125
vt 0.994140625 0.2978515625
vt 0.98095703125 0.2763671875
vt 0.994140625 0.2763671875
vt 0.97021484375 0.2802734375
vt 0.97998046875 0.2470703125
vt 0.994140625 0.24658203125
vt 0.96630859375 0.2529296875
vt 0.9501953125 0.26220703125
vt 0.97998046875 0.2138671875
vt 0.994140625 0.2138671875
vt 0.96728515625 0.220703125
vt 0.9541015625 0.224609375
vt 0.92919921875 0.220703125
vt 0.95849609375 0.1884765625
vt 0.96923828125 0.1865234375
vt 0.98095703125 0.18603515625
vt 0.994140625 0.18603515625
vt 0.9326171875 0.1826171875
vt 0.98291015625 0.15380859375
vt 0.994140625 0.15380859375
vt 0.91259765625 0.18212890625
vt 0.91943359375 0.17236328125
vt 0.962890625 0.15771484375
vt 0.9384765625 0.15234375
vt 0.921875 0.1513671875
vt 0.94189453125 0.12255859375
vt 0.9658203125 0.12939453125
vt 0.96630859375 0.09814453125
vt 0.97265625 0.1552734375
vt 0.97509765625 0.12646484375
vt 0.98388671875 0.1240234375
vt 0.994140625 0.12353515625
vt 0.994140625 0.09765625
vt 0.9736328125 0.0947265625
vt 0.98095703125 0.09228515625
vt 0.994140625 0.0771484375
vt 0.96337890625 0.07373046875
vt 0.96923828125 0.0732421875
vt 0.966796875 0.05859375
vt 0.97265625 0.07470703125
vt 0.98046875 0.07470703125
vt 0.97998046875 0.0556640625
vt 0.994140625 0.05419921875
vt 0.98486328125 0.03515625
vt 0.994140625 0.033203125
vt 1.8623046875 0.380859375
vt 1.84375 0.3642578125
vt 1.84375 0.37939453125
vt 1.8623046875 0.365234375
vt 1.84375 0.3515625
vt 1.8701171875 0.36474609375
vt 1.8701171875 0.3828125
vt 1.8623046875 0.353515625
vt 1.890625 0.37841796875
vt 1.8896484375 0.3916015625
vt 1.8701171875 0.35498046875
vt 1.8623046875 0.34228515625
vt 1.84375 0.33837890625
vt 1.8701171875 0.34423828125
vt 1.861328125 0.3310546875
vt 1.84375 0.32568359375
vt 1.8681640625 0.33349609375
vt 1.859375 0.32080078125
vt 1.84375 0.314453125
vt 1.8662109375 0.3232421875
vt 1.8583984375 0.31103515625
vt 1.84375 0.30419921875
vt 1.86328125 0.3154296875
vt 1.857421875 0.30029296875
vt 1.84375 0.2919921875
vt 1.865234375 0.3076171875
vt 1.87109375 0.3125
vt 1.857421875 0.29638671875
vt 1.84375 0.287109375
vt 1.84375 0.283203125
vt 1.865234375 0.302734375
vt 1.859375 0.2919921875
vt 1.8603515625 0.2841796875
vt 1.84375 0.27587890625
vt 1.84375 0.2734375
vt 1.8681640625 0.2978515625
vt 1.869140625 0.2900390625
vt 1.861328125 0.2822265625
vt 1.861328125 0.26025390625
vt 1.84375 0.25146484375
vt 1.8701171875 0.28759765625
vt 1.8603515625 0.23291015625
vt 1.84375 0.2275390625
vt 1.87109375 0.26220703125
vt 1.87109375 0.23583984375
vt 1.859375 0.19970703125
vt 1.84375 0.19921875
vt 1.84375 0.17138671875
vt 1.87109375 0.203125
vt 1.8583984375 0.16845703125
vt 1.8701171875 0.17041015625
vt 1.849609375 0.13818359375
vt 1.83203125 0.14306640625
vt 1.869140625 0.14306640625
vt 1.8779296875 0.1708984375
vt 1.841796875 0.13037109375
vt 1.8271484375 0.134765625
vt 1.8779296875 0.20361328125
vt 1.8291015625 0.11767578125
vt 1.818359375 0.11962890625
vt 1.8779296875 0.23583984375
vt 1.841796875 0.115234375
vt 1.84375 0.1142578125
vt 1.833984375 0.10986328125
vt 1.859375 0.1259765625
vt 1.8486328125 0.0869140625
vt 1.8193359375 0.1044921875
vt 1.82421875 0.10107421875
vt 1.8115234375 0.10498046875
vt 1.8154296875 0.09423828125
vt 1.80859375 0.0888671875
vt 1.8681640625 0.095703125
vt 1.8828125 0.11376953125
vt 1.8720703125 0.07080078125
vt 1.8583984375 0.06298828125
vt 1.8701171875 0.04296875
vt 1.89453125 0.09619140625
vt 1.884765625 0.0537109375
vt 1.87890625 0.0419921875
vt 1.8876953125 0.04052734375
vt 1.8984375 0.060546875
vt 1.9052734375 0.03173828125
vt 1.89453125 0.123046875
vt 1.916015625 0.056640625
vt 1.880859375 0.14453125
vt 1.9326171875 0.0458984375
vt 1.92578125 0.0205078125
vt 1.890625 0.15087890625
vt 1.9619140625 0.025390625
vt 1.9580078125 0.009765625
vt 1.994140625 0.00537109375
vt 1.9404296875 0.05615234375
vt 1.9658203125 0.0322265625
vt 1.9755859375 0.03271484375
vt 1.9228515625 0.06982421875
vt 1.962890625 0.0537109375
vt 1.908203125 0.0810546875
vt 1.9384765625 0.0810546875
vt 1.923828125 0.09521484375
vt 1.9091796875 0.1083984375
vt 1.931640625 0.10400390625
vt 1.916015625 0.1181640625
vt 1.9541015625 0.0869140625
vt 1.9013671875 0.13330078125
vt 1.9345703125 0.1103515625
vt 1.923828125 0.12451171875
vt 1.908203125 0.14453125
vt 1.94140625 0.12255859375
vt 1.921875 0.13330078125
vt 1.916015625 0.1474609375
vt 1.9013671875 0.15576171875
vt 1.88671875 0.17431640625
vt 1.8955078125 0.17724609375
vt 1.8857421875 0.20654296875
vt 1.9033203125 0.17822265625
vt 1.8935546875 0.208984375
vt 1.8857421875 0.23876953125
vt 1.87890625 0.263671875
vt 1.89453125 0.24169921875
vt 1.8876953125 0.26806640625
vt 1.8798828125 0.2919921875
vt 1.90234375 0.21142578125
vt 1.896484375 0.27294921875
vt 1.912109375 0.18212890625
vt 1.9033203125 0.244140625
vt 1.9111328125 0.21240234375
vt 1.9189453125 0.17236328125
vt 1.9326171875 0.1826171875
vt 1.921875 0.1513671875
vt 1.9384765625 0.15234375
vt 1.9658203125 0.12939453125
vt 1.962890625 0.15771484375
vt 1.9658203125 0.09814453125
vt 1.97265625 0.1552734375
vt 1.962890625 0.07373046875
vt 1.974609375 0.12646484375
vt 1.9736328125 0.0947265625
vt 1.966796875 0.05859375
vt 1.96875 0.0732421875
vt 1.9794921875 0.0556640625
vt 1.97265625 0.07470703125
vt 1.98046875 0.09228515625
vt 1.9833984375 0.1240234375
vt 1.98046875 0.07470703125
vt 1.994140625 0.0771484375
vt 1.994140625 0.09765625
vt 1.994140625 0.05419921875
vt 1.994140625 0.12353515625
vt 1.994140625 0.15380859375
vt 1.984375 0.03515625
vt 1.994140625 0.033203125
vt 1.982421875 0.15380859375
vt 1.994140625 0.18603515625
vt 1.98046875 0.18603515625
vt 1.994140625 0.2138671875
vt 1.96875 0.1865234375
vt 1.9794921875 0.2138671875
vt 1.994140625 0.24658203125
vt 1.9580078125 0.1884765625
vt 1.966796875 0.220703125
vt 1.9794921875 0.2470703125
vt 1.994140625 0.2763671875
vt 1.9541015625 0.224609375
vt 1.98046875 0.2763671875
vt 1.994140625 0.2978515625
vt 1.9658203125 0.2529296875
vt 1.982421875 0.2978515625
vt 1.994140625 0.31494140625
vt 1.9697265625 0.2802734375
vt 1.9501953125 0.26220703125
vt 1.9287109375 0.220703125
vt 1.9130859375 0.24755859375
vt 1.927734375 0.271484375
vt 1.9560546875 0.2880859375
vt 1.9052734375 0.275390625
vt 1.9140625 0.27685546875
vt 1.9384765625 0.30078125
vt 1.9140625 0.31103515625
vt 1.8984375 0.3056640625
vt 1.9482421875 0.31201171875
vt 1.90625 0.3125
vt 1.8876953125 0.3017578125
vt 1.896484375 0.3095703125
vt 1.88671875 0.302734375
vt 1.8779296875 0.296875
vt 1.875 0.3037109375
vt 1.8837890625 0.31103515625
vt 1.8720703125 0.30908203125
vt 1.880859375 0.31640625
vt 1.8994140625 0.3251953125
vt 1.880859375 0.3232421875
vt 1.8974609375 0.33056640625
vt 1.890625 0.3369140625
vt 1.8984375 0.35205078125
vt 1.9189453125 0.35302734375
vt 1.9072265625 0.3701171875
vt 1.9130859375 0.390625
vt 1.9189453125 0.4091796875
vt 1.9384765625 0.38623046875
vt 1.9384765625 0.3955078125
vt 1.9384765625 0.412109375
vt 1.9609375 0.39892578125
vt 1.958984375 0.4150390625
vt 1.9677734375 0.4091796875
vt 1.9765625 0.40478515625
vt 1.978515625 0.39013671875
vt 1.994140625 0.40478515625
vt 1.994140625 0.390625
vt 1.962890625 0.38818359375
vt 1.98046875 0.37109375
vt 1.994140625 0.37109375
vt 1.9677734375 0.3701171875
vt 1.9423828125 0.36279296875
vt 1.9814453125 0.3583984375
vt 1.994140625 0.35791015625
vt 1.970703125 0.3583984375
vt 1.9833984375 0.34716796875
vt 1.994140625 0.34619140625
vt 1.9736328125 0.34912109375
vt 1.9853515625 0.33642578125
vt 1.994140625 0.33447265625
vt 1.994140625 0.326171875
vt 1.98046875 0.337890625
vt 1.978515625 0.32666015625
vt 1.994140625 0.3193359375
vt 1.9560546875 0.34130859375
vt 1.974609375 0.32666015625
vt 1.9775390625 0.31982421875
vt 1.9775390625 0.31494140625
vt 1.9736328125 0.3203125
vt 1.9736328125 0.30029296875
vt 1.9716796875 0.3154296875
vt 1.96484375 0.3046875
vt 1.955078125 0.3212890625
vt 1.953125 0.31640625
vt 1.9365234375 0.314453125
vt 1.9365234375 0.31982421875
vt 1.9150390625 0.31689453125
vt 1.9404296875 0.3291015625
vt 1.90625 0.31494140625
vt 1.9130859375 0.326171875
vt 1.95703125 0.32958984375
vt 1.939453125 0.34375
vt 1.958984375 0.33251953125
vt 1.9453125 0.3388671875
vt 1.9482421875 0.35009765625
vt 1.9365234375 0.3603515625
vt 0.865234375 0.4296875
vt 0.869140625 0.43701171875
vt 0.85498046875 0.4365234375
vt 0.87255859375 0.42431640625
vt 0.865234375 0.421875
vt 0.873046875 0.43359375
vt 0.8759765625 0.43994140625
vt 0.87646484375 0.4267578125
vt 0.8779296875 0.4375
vt 0.880859375 0.42578125
vt 0.8837890625 0.443359375
vt 0.8828125 0.4462890625
vt 0.90185546875 0.4248046875
vt 0.9013671875 0.4462890625
vt 0.9013671875 0.443359375
vt 0.91943359375 0.443359375
vt 0.9248046875 0.42578125
vt 0.91943359375 0.4462890625
vt 0.94921875 0.43798828125
vt 0.94482421875 0.421875
vt 0.94970703125 0.4404296875
vt 0.96875 0.42431640625
vt 0.9677734375 0.43603515625
vt 0.96875 0.4384765625
vt 0.9755859375 0.435546875
vt 0.97607421875 0.42431640625
vt 0.9755859375 0.43798828125
vt 0.98974609375 0.43505859375
vt 0.98974609375 0.4248046875
vt 0.99267578125 0.43798828125
vt 1.865234375 0.4296875
vt 1.8544921875 0.4365234375
vt 1.869140625 0.43701171875
vt 1.8720703125 0.4208984375
vt 1.865234375 0.421875
vt 1.873046875 0.43359375
vt 1.8759765625 0.43994140625
vt 1.875 0.419921875
vt 1.8779296875 0.4375
vt 1.8798828125 0.41943359375
vt 1.8837890625 0.443359375
vt 1.8828125 0.4462890625
vt 1.9013671875 0.419921875
vt 1.9013671875 0.4462890625
vt 1.9013671875 0.443359375
vt 1.9189453125 0.443359375
vt 1.9248046875 0.419921875
vt 1.9189453125 0.4462890625
vt 1.94921875 0.43798828125
vt 1.9443359375 0.421875
vt 1.94921875 0.4404296875
vt 1.96875 0.42431640625
vt 1.9677734375 0.43603515625
vt 1.96875 0.4384765625
vt 1.9755859375 0.435546875
vt 1.9755859375 0.42431640625
vt 1.9755859375 0.43798828125
vt 1.9892578125 0.43505859375
vt 1.9892578125 0.4248046875
vt 1.9921875 0.43798828125
vn 0.6832 0.0000 0.7303
vn 0.3547 0.0946 0.9302
vn 0.4173 0.0787 0.9054
vn 0.0236 0.2757 0.9610
vn 0.0236 0.2829 0.9588
vn 0.0237 0.2923 0.9560
vn 0.0237 0.2923 0.9560
vn -0.0000 1.0000 -0.0000
vn -0.0000 1.0000 -0.0000
vn -0.0000 1.0000 -0.0000
vn -0.0000 1.0000 -0.0000
vn -0.0000 1.0000 -0.0000
vn -0.0000 1.0000 -0.0000
vn -0.0000 1.0000 -0.0000
vn -0.0000 1.0000 -0.0000
vn -0.0236 0.9918 -0.1259
vn -0.0000 1.0000 -0.0000
vn -0.1810 0.9835 -0.0000
vn -0.0000 1.0000 -0.0000
vn -0.0000 1.0000 -0.0000
vn -0.0000 1.0000 -0.0000
vn 0.0079 0.9317 -0.3632
vn -0.1335 0.7852 -0.6046
vn -0.6150 0.7884 0.0158
vn 0.0709 0.7324 -0.6772
vn 0.9059 0.4175 -0.0709
vn 0.6779 0.7331 -0.0552
vn -0.0791 0.7830 -0.6169
vn -0.1810 0.9835 -0.0000
vn 0.0236 0.7563 -0.6538
vn 0.5453 0.8377 -0.0316
vn 0.0236 0.9997 -0.0000
vn -0.7556 0.0472 0.6533
vn -0.6721 0.0870 0.7353
vn -0.7444 0.0470 0.6661
vn -0.7010 0.0788 0.7088
vn -0.7797 0.0709 0.6222
vn -0.1808 0.0472 0.9824
vn -0.2370 0.2449 0.9401
vn -0.7473 0.0708 0.6607
vn -0.0552 0.1577 0.9859
vn -0.0787 0.4173 0.9054
vn -0.1337 0.0000 0.9910
vn -0.7653 0.1262 0.6312
vn -0.7935 0.1178 0.5971
vn -0.1579 0.0316 0.9869
vn -0.7801 0.1812 0.5989
vn -0.8059 0.1896 0.5609
vn -0.2125 0.0472 0.9760
vn -0.7890 0.2525 0.5602
vn -0.7970 0.2920 0.5287
vn -0.3311 0.1025 0.9380
vn -0.7237 0.4720 0.5035
vn -0.7240 0.5666 0.3935
vn -0.5830 0.2758 0.7642
vn -0.7011 0.4963 0.5120
vn -0.7744 0.4188 0.4741
vn -0.4417 0.2287 0.8675
vn -0.1657 -0.0079 0.9861
vn -0.7010 0.4883 0.5198
vn -0.7556 0.5352 0.3778
vn -0.8353 0.2364 0.4964
vn -0.4557 0.5972 0.6600
vn -0.7176 0.3548 0.5993
vn -0.7330 -0.1182 0.6699
vn -0.7900 -0.1580 0.5925
vn -0.8506 0.0788 0.5198
vn -0.4252 0.4173 0.8031
vn -0.3237 -0.2053 0.9236
vn -0.7324 0.0709 0.6772
vn -0.7723 0.2522 0.5831
vn -0.8589 0.3073 0.4097
vn -0.1500 -0.0631 0.9867
vn -0.7541 0.3928 0.5263
vn -0.8349 0.4568 0.3072
vn -0.2448 0.1105 0.9633
vn -0.2369 0.1263 0.9633
vn -0.6776 0.5121 0.5279
vn -0.7487 0.5832 0.3152
vn -0.6124 0.6517 0.4475
vn -0.2209 0.1578 0.9625
vn -0.5606 0.5448 0.6237
vn -0.1892 0.1971 0.9619
vn -0.5503 0.5110 0.6604
vn -0.5423 0.6210 0.5659
vn -0.0949 0.1739 0.9802
vn 0.0157 -0.0079 0.9998
vn -0.4098 0.1576 0.8984
vn -0.5691 0.5059 0.6482
vn -0.0157 0.0079 0.9998
vn -0.2369 0.0079 0.9715
vn -0.5986 0.4017 0.6931
vn -0.0550 0.0314 0.9980
vn 0.3310 -0.7092 0.6225
vn -0.8664 0.3938 0.3072
vn 0.5515 -0.6460 0.5278
vn -0.6373 0.3383 0.6924
vn -0.8669 0.4098 0.2837
vn -0.1574 -0.0866 0.9837
vn 0.6056 -0.5820 0.5427
vn -0.6141 0.2519 0.7479
vn 0.5823 -0.5508 0.5980
vn -0.1260 -0.2127 0.9690
vn -0.6393 0.2289 0.7341
vn -0.0553 0.0790 0.9953
vn -0.6566 0.0633 0.7516
vn -0.8857 0.3242 0.3322
vn -0.6854 -0.1655 0.7091
vn -0.0869 -0.0474 0.9951
vn -0.4872 -0.4400 0.7543
vn -0.4242 -0.6520 0.6284
vn -0.6054 -0.4324 0.6683
vn -0.5056 -0.2370 0.8296
vn -0.6921 -0.2910 0.6606
vn 0.1810 0.0000 0.9835
vn -0.5906 -0.2362 0.7717
vn 0.1656 -0.0315 0.9857
vn -0.6076 -0.2841 0.7417
vn -0.7108 -0.3396 0.6160
vn -0.5902 -0.4014 0.7004
vn -0.6919 -0.4167 0.5897
vn -0.1655 -0.5597 0.8120
vn 0.0630 -0.1024 0.9927
vn -0.0237 -0.3161 0.9484
vn 0.2676 -0.2834 0.9209
vn 0.0236 -0.0157 0.9996
vn 0.2604 -0.1894 0.9468
vn 0.2755 0.0394 0.9605
vn -0.0946 -0.0631 0.9935
vn 0.1733 0.0079 0.9848
vn 0.1580 0.0158 0.9873
vn -0.0000 -0.0472 0.9989
vn -0.0000 -0.0157 0.9999
vn -0.0947 0.0395 0.9947
vn -0.0315 0.0000 0.9995
vn 0.1337 0.0000 0.9910
vn 0.1414 0.0000 0.9899
vn -0.0707 0.0236 0.9972
vn 0.1260 0.0000 0.9920
vn -0.0236 0.0236 0.9994
vn -0.0000 0.0000 1.0000
vn -0.1422 -0.0711 0.9873
vn -0.0079 0.0000 1.0000
vn -0.0000 -0.0079 1.0000
vn 0.0550 -0.0393 0.9977
vn -0.0472 0.0157 0.9988
vn -0.0079 0.0000 1.0000
vn -0.0000 0.0000 1.0000
vn -0.1180 0.0629 0.9910
vn -0.0079 0.0079 0.9999
vn -0.0000 0.0000 1.0000
vn -0.1810 0.0000 0.9835
vn -0.0000 0.0000 1.0000
vn -0.0394 -0.2126 0.9763
vn -0.2599 0.4569 0.8507
vn 0.0315 -0.1104 0.9934
vn -0.2841 0.5445 0.7892
vn -0.1736 0.4341 0.8840
vn -0.1971 0.4258 0.8831
vn 0.1341 -0.1578 0.9783
vn 0.0393 -0.0236 0.9989
vn -0.0000 0.0079 1.0000
vn -0.0707 -0.0157 0.9974
vn 0.0157 -0.0079 0.9998
vn 0.0079 0.0000 1.0000
vn 0.0790 -0.1343 0.9878
vn -0.1260 0.3860 0.9138
vn 0.0472 0.0157 0.9988
vn -0.0079 -0.0472 0.9989
vn -0.0000 0.1337 0.9910
vn 0.0869 -0.1343 0.9871
vn -0.0079 0.0000 1.0000
vn 0.1103 -0.0394 0.9931
vn -0.0630 -0.4017 0.9136
vn -0.0236 0.0393 0.9989
vn 0.0869 -0.0395 0.9954
vn -0.0550 0.0314 0.9980
vn -0.0000 0.0236 0.9997
vn 0.0869 -0.0474 0.9951
vn -0.0710 -0.3786 0.9228
vn 0.0315 0.0236 0.9992
vn 0.1260 -0.0079 0.9920
vn 0.0393 -0.0079 0.9992
vn 0.1339 -0.4017 0.9059
vn 0.4573 -0.1577 0.8752
vn 0.0079 0.1260 0.9920
vn 0.2607 -0.0553 0.9638
vn -0.0236 0.0236 0.9994
vn 0.7543 -0.4872 0.4400
vn -0.0472 0.0236 0.9986
vn 0.0157 -0.0393 0.9991
vn -0.1184 0.1658 0.9790
vn 0.1103 0.2206 0.9691
vn -0.0157 -0.0472 0.9988
vn -0.0000 -0.0393 0.9992
vn -0.0079 -0.0079 0.9999
vn -0.0079 0.0000 1.0000
vn -0.0157 0.3067 0.9517
vn -0.0158 0.5455 0.8380
vn -0.0000 0.0157 0.9999
vn -0.0000 0.3233 0.9463
vn -0.0000 0.5602 0.8284
vn 0.2288 0.2841 0.9311
vn 0.0551 0.5593 0.8271
vn 0.5826 0.4724 0.6614
vn 0.6624 0.0079 0.7491
vn -0.0314 0.0628 0.9975
vn 0.2996 0.0000 0.9541
vn 0.1182 0.0079 0.9930
vn 0.0785 0.0000 0.9969
vn 0.7096 -0.0631 0.7017
vn 0.6138 -0.0630 0.7869
vn 0.6787 -0.1105 0.7261
vn 0.3068 -0.0079 0.9518
vn 0.7830 -0.0791 0.6169
vn 0.7723 -0.1261 0.6226
vn 0.3632 0.0000 0.9317
vn 0.8673 -0.0315 0.4967
vn 0.8660 -0.0630 0.4960
vn 0.2368 0.0395 0.9708
vn 0.4657 0.0395 0.8841
vn 0.9150 0.0316 0.4023
vn 0.9223 0.0079 0.3863
vn 0.6058 0.0393 0.7946
vn 0.9394 -0.0868 0.3316
vn 0.9470 -0.1342 0.2920
vn 0.9771 0.0000 0.2128
vn 0.9522 0.0630 0.2990
vn 0.9462 -0.2681 0.1813
vn 0.4335 0.1813 0.8827
vn 0.8933 -0.2846 0.3478
vn 0.8748 -0.4492 0.1813
vn 0.8825 -0.2443 0.4019
vn 0.0948 -0.0237 0.9952
vn 0.9453 -0.2600 0.1969
vn 0.7955 -0.2678 0.5435
vn 0.9229 -0.3155 0.2209
vn 0.3705 -0.1104 0.9223
vn 0.7555 -0.3148 0.5745
vn 0.8914 -0.3865 0.2367
vn 0.3235 -0.1183 0.9388
vn -0.0157 0.0157 0.9998
vn 0.7331 -0.3863 0.5597
vn 0.8578 -0.4565 0.2361
vn 0.3311 -0.1577 0.9303
vn -0.0236 0.0079 0.9997
vn -0.0707 0.0236 0.9972
vn -0.0079 0.0000 1.0000
vn 0.3865 -0.2367 0.8914
vn 0.7144 -0.4789 0.5103
vn 0.8118 -0.5438 0.2128
vn -0.0707 0.0314 0.9970
vn 0.7188 -0.5608 0.4108
vn 0.7721 -0.6067 0.1891
vn 0.1103 -0.0473 0.9928
vn 0.0948 -0.0316 0.9950
vn 0.0079 -0.0157 0.9998
vn -0.0869 0.0474 0.9951
vn 0.1337 -0.0236 0.9907
vn -0.1025 0.0394 0.9939
vn 0.0314 -0.0550 0.9980
vn 0.0473 -0.1025 0.9936
vn 0.4893 -0.3710 0.7893
vn 0.5651 -0.4631 0.6828
vn 0.7165 -0.6142 0.3307
vn 0.7485 -0.6460 0.1497
vn 0.8046 -0.5601 0.1972
vn 0.5744 -0.5036 0.6453
vn 0.7869 -0.4879 0.3777
vn 0.8763 -0.3947 0.2763
vn 0.1336 -0.1807 0.9744
vn 0.5349 -0.4956 0.6843
vn 0.2291 -0.2528 0.9400
vn 0.3152 -0.1891 0.9300
vn 0.7328 -0.3231 0.5989
vn 0.5510 -0.3857 0.7400
vn 0.8351 -0.4806 0.2678
vn 0.5349 -0.4090 0.7394
vn 0.8502 -0.4487 0.2755
vn -0.6721 0.0870 -0.7353
vn -0.7556 0.0472 -0.6533
vn -0.7444 0.0470 -0.6661
vn -0.7010 0.0788 -0.7088
vn -0.7797 0.0709 -0.6222
vn -0.1808 0.0472 -0.9824
vn -0.2370 0.2449 -0.9401
vn -0.7473 0.0708 -0.6607
vn -0.0552 0.1577 -0.9859
vn -0.0787 0.4173 -0.9054
vn -0.1337 0.0000 -0.9910
vn -0.7653 0.1262 -0.6312
vn -0.7935 0.1178 -0.5971
vn -0.1579 0.0316 -0.9869
vn -0.7801 0.1812 -0.5989
vn -0.8059 0.1896 -0.5609
vn -0.2125 0.0472 -0.9760
vn -0.7890 0.2525 -0.5602
vn -0.7970 0.2920 -0.5287
vn -0.3311 0.1025 -0.9380
vn -0.7237 0.4720 -0.5035
vn -0.7240 0.5666 -0.3935
vn -0.5830 0.2758 -0.7642
vn -0.7011 0.4963 -0.5120
vn -0.7744 0.4188 -0.4741
vn -0.4417 0.2287 -0.8675
vn -0.1657 -0.0079 -0.9861
vn -0.7010 0.4883 -0.5198
vn -0.7556 0.5352 -0.3778
vn -0.8353 0.2364 -0.4964
vn -0.4557 0.5972 -0.6600
vn -0.7176 0.3548 -0.5993
vn -0.7330 -0.1182 -0.6699
vn -0.7900 -0.1580 -0.5925
vn -0.8506 0.0788 -0.5198
vn -0.4252 0.4173 -0.8031
vn -0.3237 -0.2053 -0.9236
vn -0.7324 0.0709 -0.6772
vn -0.7723 0.2522 -0.5831
vn -0.8589 0.3073 -0.4097
vn -0.1500 -0.0631 -0.9867
vn -0.7541 0.3928 -0.5263
vn -0.8349 0.4568 -0.3072
vn -0.2448 0.1105 -0.9633
vn -0.2369 0.1263 -0.9633
vn -0.6776 0.5121 -0.5279
vn -0.7487 0.5832 -0.3152
vn -0.6124 0.6517 -0.4475
vn -0.2209 0.1578 -0.9625
vn -0.5606 0.5448 -0.6237
vn -0.1892 0.1971 -0.9619
vn -0.5503 0.5110 -0.6604
vn -0.5423 0.6210 -0.5659
vn -0.0949 0.1739 -0.9802
vn 0.0157 -0.0079 -0.9998
vn -0.4098 0.1576 -0.8984
vn -0.5691 0.5059 -0.6482
vn -0.0157 0.0079 -0.9998
vn -0.2369 0.0079 -0.9715
vn -0.5986 0.4017 -0.6931
vn -0.0550 0.0314 -0.9980
vn 0.3310 -0.7092 -0.6225
vn -0.8664 0.3938 -0.3072
vn 0.5515 -0.6460 -0.5278
vn -0.6373 0.3383 -0.6924
vn -0.8669 0.4098 -0.2837
vn -0.1574 -0.0866 -0.9837
vn 0.6056 -0.5820 -0.5427
vn -0.6141 0.2519 -0.7479
vn 0.5823 -0.5508 -0.5980
vn -0.1260 -0.2127 -0.9690
vn -0.6393 0.2289 -0.7341
vn -0.0553 0.0790 -0.9953
vn -0.6566 0.0633 -0.7516
vn -0.8857 0.3242 -0.3322
vn -0.6854 -0.1655 -0.7091
vn -0.0869 -0.0474 -0.9951
vn -0.4872 -0.4400 -0.7543
vn -0.4242 -0.6520 -0.6284
vn -0.6054 -0.4324 -0.6683
vn -0.5056 -0.2370 -0.8296
vn -0.6921 -0.2910 -0.6606
vn 0.1810 0.0000 -0.9835
vn -0.5906 -0.2362 -0.7717
vn 0.1656 -0.0315 -0.9857
vn -0.6076 -0.2841 -0.7417
vn -0.7108 -0.3396 -0.6160
vn -0.0707 0.0236 -0.9972
vn -0.5902 -0.4014 -0.7004
vn -0.6919 -0.4167 -0.5897
vn -0.1655 -0.5597 -0.8120
vn 0.0630 -0.1024 -0.9927
vn -0.0237 -0.3161 -0.9484
vn 0.2676 -0.2834 -0.9209
vn 0.0236 -0.0157 -0.9996
vn 0.2604 -0.1894 -0.9468
vn -0.0946 -0.0631 -0.9935
vn 0.2755 0.0394 -0.9605
vn 0.1733 0.0079 -0.9848
vn 0.1580 0.0158 -0.9873
vn -0.0000 -0.0472 -0.9989
vn -0.0000 -0.0157 -0.9999
vn -0.0947 0.0395 -0.9947
vn -0.0315 0.0000 -0.9995
vn 0.1337 0.0000 -0.9910
vn 0.1414 0.0000 -0.9899
vn 0.1260 0.0000 -0.9920
vn -0.1025 0.0394 -0.9939
vn -0.1422 -0.0711 -0.9873
vn 0.0550 -0.0393 -0.9977
vn -0.0000 0.0000 -1.0000
vn -0.0236 0.0236 -0.9994
vn -0.0000 -0.0079 -1.0000
vn -0.0079 0.0000 -1.0000
vn -0.0472 0.0157 -0.9988
vn -0.0079 0.0000 -1.0000
vn -0.0000 0.0000 -1.0000
vn -0.1180 0.0629 -0.9910
vn -0.0079 0.0079 -0.9999
vn -0.0000 0.0000 -1.0000
vn -0.1810 0.0000 -0.9835
vn -0.0000 0.0000 -1.0000
vn -0.0000 0.0079 -1.0000
vn 0.1103 -0.0473 -0.9928
vn 0.0157 -0.0079 -0.9998
vn 0.0869 -0.0474 -0.9951
vn 0.0948 -0.0316 -0.9950
vn -0.0707 0.0314 -0.9970
vn 0.1337 -0.0236 -0.9907
vn -0.0869 0.0474 -0.9951
vn 0.0314 -0.0550 -0.9980
vn 0.0079 -0.0157 -0.9998
vn 0.0473 -0.1025 -0.9936
vn 0.4893 -0.3710 -0.7893
vn 0.1336 -0.1807 -0.9744
vn 0.5651 -0.4631 -0.6828
vn 0.5744 -0.5036 -0.6453
vn 0.2291 -0.2528 -0.9400
vn 0.5349 -0.4956 -0.6843
vn 0.5510 -0.3857 -0.7400
vn 0.3152 -0.1891 -0.9300
vn 0.7869 -0.4879 -0.3777
vn 0.7165 -0.6142 -0.3307
vn 0.7328 -0.3231 -0.5989
vn 0.8763 -0.3947 -0.2763
vn 0.8046 -0.5601 -0.1972
vn 0.8351 -0.4806 -0.2678
vn 0.7485 -0.6460 -0.1497
vn 0.7721 -0.6067 -0.1891
vn 0.5349 -0.4090 -0.7394
vn 0.8502 -0.4487 -0.2755
vn 0.7188 -0.5608 -0.4108
vn 0.8118 -0.5438 -0.2128
vn 0.7144 -0.4789 -0.5103
vn 0.8578 -0.4565 -0.2361
vn 0.3865 -0.2367 -0.8914
vn 0.7331 -0.3863 -0.5597
vn 0.8914 -0.3865 -0.2367
vn -0.0079 0.0000 -1.0000
vn 0.3311 -0.1577 -0.9303
vn 0.7555 -0.3148 -0.5745
vn 0.9229 -0.3155 -0.2209
vn -0.0236 0.0079 -0.9997
vn 0.7955 -0.2678 -0.5435
vn 0.9453 -0.2600 -0.1969
vn 0.3235 -0.1183 -0.9388
vn 0.8825 -0.2443 -0.4019
vn 0.8748 -0.4492 -0.1813
vn 0.3705 -0.1104 -0.9223
vn -0.0157 0.0157 -0.9998
vn -0.0707 0.0236 -0.9972
vn 0.0869 -0.0395 -0.9954
vn -0.0550 0.0314 -0.9980
vn 0.0315 0.0236 -0.9992
vn 0.0079 0.0000 -1.0000
vn 0.1103 -0.0394 -0.9931
vn -0.0236 0.0393 -0.9989
vn 0.0869 -0.1343 -0.9871
vn -0.0707 -0.0157 -0.9974
vn -0.0000 0.0236 -0.9997
vn 0.0790 -0.1343 -0.9878
vn 0.1341 -0.1578 -0.9783
vn 0.0393 -0.0236 -0.9989
vn 0.0315 -0.1104 -0.9934
vn -0.0394 -0.2126 -0.9763
vn -0.2599 0.4569 -0.8507
vn -0.1736 0.4341 -0.8840
vn -0.2841 0.5445 -0.7892
vn -0.1971 0.4258 -0.8831
vn -0.1260 0.3860 -0.9138
vn -0.0157 -0.0472 -0.9988
vn -0.1184 0.1658 -0.9790
vn -0.0000 -0.0393 -0.9992
vn -0.0079 -0.0079 -0.9999
vn -0.0472 0.0236 -0.9986
vn -0.0079 0.0000 -1.0000
vn -0.0157 0.3067 -0.9517
vn -0.0158 0.5455 -0.8380
vn -0.0000 0.0157 -0.9999
vn -0.0000 0.3233 -0.9463
vn -0.0000 0.5602 -0.8284
vn 0.2288 0.2841 -0.9311
vn 0.0551 0.5593 -0.8271
vn 0.5826 0.4724 -0.6614
vn 0.6624 0.0079 -0.7491
vn 0.7096 -0.0631 -0.7017
vn 0.6138 -0.0630 -0.7869
vn 0.6787 -0.1105 -0.7261
vn 0.2996 0.0000 -0.9541
vn 0.7830 -0.0791 -0.6169
vn 0.7723 -0.1261 -0.6226
vn 0.3068 -0.0079 -0.9518
vn 0.0785 0.0000 -0.9969
vn 0.8673 -0.0315 -0.4967
vn 0.8660 -0.0630 -0.4960
vn 0.3632 0.0000 -0.9317
vn 0.9150 0.0316 -0.4023
vn 0.9223 0.0079 -0.3863
vn 0.4657 0.0395 -0.8841
vn 0.9394 -0.0868 -0.3316
vn 0.9470 -0.1342 -0.2920
vn 0.9771 0.0000 -0.2128
vn 0.6058 0.0393 -0.7946
vn 0.9522 0.0630 -0.2990
vn 0.9462 -0.2681 -0.1813
vn 0.2368 0.0395 -0.9708
vn 0.4335 0.1813 -0.8827
vn 0.8933 -0.2846 -0.3478
vn 0.7543 -0.4872 -0.4400
vn 0.2607 -0.0553 -0.9638
vn 0.4573 -0.1577 -0.8752
vn 0.1339 -0.4017 -0.9059
vn 0.1260 -0.0079 -0.9920
vn 0.0393 -0.0079 -0.9992
vn -0.0710 -0.3786 -0.9228
vn -0.0630 -0.4017 -0.9136
vn -0.0079 0.0000 -1.0000
vn -0.0079 -0.0472 -0.9989
vn 0.0079 0.1260 -0.9920
vn 0.0472 0.0157 -0.9988
vn -0.0000 0.1337 -0.9910
vn 0.1103 0.2206 -0.9691
vn -0.0236 0.0236 -0.9994
vn 0.0948 -0.0237 -0.9952
vn 0.0157 -0.0393 -0.9991
vn 0.1182 0.0079 -0.9930
vn -0.0314 0.0628 -0.9975
vn -0.6003 0.6556 -0.4581
vn 0.0237 0.8926 -0.4502
vn -0.0000 0.9317 -0.3632
vn -0.9244 -0.0869 -0.3713
vn -0.9536 -0.0315 -0.2995
vn -0.6151 0.4022 -0.6782
vn 0.3627 0.4573 -0.8120
vn -0.6453 -0.3226 -0.6925
vn -0.3393 -0.1341 -0.9311
vn -0.1026 -0.3708 -0.9230
vn -0.0158 -0.2052 -0.9786
vn 0.1575 0.6536 -0.7402
vn -0.0158 -0.3862 -0.9223
vn -0.0000 0.7303 -0.6832
vn -0.0079 -0.2518 -0.9678
vn -0.0315 -0.1656 -0.9857
vn -0.0000 -0.2996 -0.9541
vn -0.1967 0.7946 -0.5743
vn -0.0315 0.0000 -0.9995
vn 0.0079 -0.1733 -0.9848
vn -0.2763 0.8763 -0.3947
vn 0.0948 -0.0316 -0.9950
vn 0.0472 0.1258 -0.9909
vn -0.1260 0.9530 -0.2757
vn 0.5894 0.2436 -0.7702
vn 0.6237 0.0000 -0.7816
vn 0.1418 0.9613 -0.2364
vn 0.6942 0.3156 -0.6469
vn 0.7417 0.0000 -0.6707
vn 0.1970 0.9534 -0.2285
vn -0.6525 0.6053 0.4559
vn -0.0000 0.9317 0.3632
vn 0.0237 0.8926 0.4502
vn -0.8585 -0.0945 0.5041
vn -0.9539 -0.0158 0.2996
vn -0.6142 0.3307 0.7165
vn 0.3627 0.4573 0.8120
vn -0.5419 -0.2278 0.8090
vn -0.3311 -0.1025 0.9380
vn -0.0945 -0.2599 0.9610
vn -0.0157 -0.1414 0.9898
vn 0.1575 0.6536 0.7402
vn -0.0079 -0.2758 0.9612
vn -0.0000 0.7303 0.6832
vn -0.0079 -0.1886 0.9820
vn -0.0393 -0.1259 0.9913
vn -0.0236 -0.2443 0.9694
vn -0.1967 0.7946 0.5743
vn -0.0550 0.0000 0.9985
vn -0.0316 -0.1579 0.9869
vn -0.2763 0.8763 0.3947
vn 0.0948 -0.0316 0.9950
vn 0.0472 0.1258 0.9909
vn -0.1260 0.9530 0.2757
vn 0.5894 0.2436 0.7702
vn 0.6237 0.0000 0.7816
vn 0.1418 0.9613 0.2364
vn 0.6942 0.3156 0.6469
vn 0.7417 0.0000 0.6707
vn 0.1970 0.9534 0.2285
usemtl AK_Foresaken_white
f 1/1/1 2/2/2 3/3/3
f 4/4/4 3/3/3 2/2/2
f 5/5/5 4/4/4 2/2/2
f 6/6/6 4/4/4 5/5/5
f 7/7/7 4/4/4 6/6/6
f 8/8/8 9/9/9 10/10/10
f 8/8/8 11/11/11 9/9/9
f 8/8/8 12/12/12 11/11/11
f 12/12/12 8/8/8 13/13/13
f 12/12/12 13/13/13 14/14/14
f 15/15/15 14/14/14 13/13/13
f 14/14/14 15/15/15 16/16/16
f 16/16/16 17/17/17 14/14/14
f 16/16/16 15/15/15 18/18/18
f 16/16/16 19/19/19 17/17/17
f 19/19/19 20/20/20 21/21/21
f 19/19/19 22/22/22 20/20/20
f 16/16/16 22/22/22 19/19/19
f 18/18/18 23/23/23 16/16/16
f 23/23/23 22/22/22 16/16/16
f 23/23/23 18/18/18 24/24/24
f 22/22/22 23/23/23 25/25/25
f 22/22/22 25/25/25 26/26/26
f 26/26/26 25/25/25 27/27/27
f 24/24/24 28/28/28 23/23/23
f 28/28/28 24/24/24 29/29/29
f 25/25/25 23/23/23 30/30/30
f 30/30/30 23/23/23 28/28/28
f 30/30/30 27/27/27 25/25/25
f 29/29/29 30/30/30 28/28/28
f 27/27/27 30/30/30 31/31/31
f 30/30/30 29/29/29 32/32/32
f 30/30/30 32/32/32 31/31/31
f 33/33/33 34/34/34 35/35/35
f 34/34/34 33/33/33 36/36/36
f 36/36/36 33/33/33 37/37/37
f 38/38/38 34/34/34 36/36/36
f 34/34/34 38/38/38 39/39/39
f 36/36/36 37/37/37 40/40/40
f 36/36/36 40/40/40 38/38/38
f 41/41/41 39/39/39 38/38/38
f 39/39/39 41/41/41 42/42/42
f 40/40/40 43/43/43 38/38/38
f 43/43/43 41/41/41 38/38/38
f 37/37/37 44/44/44 40/40/40
f 44/44/44 37/37/37 45/45/45
f 40/40/40 46/46/46 43/43/43
f 46/46/46 40/40/40 44/44/44
f 45/45/45 47/47/47 44/44/44
f 47/47/47 45/45/45 48/48/48
f 44/44/44 49/49/49 46/46/46
f 49/49/49 44/44/44 47/47/47
f 48/48/48 50/50/50 47/47/47
f 50/50/50 48/48/48 51/51/51
f 47/47/47 52/52/52 49/49/49
f 52/52/52 47/47/47 50/50/50
f 51/51/51 53/53/53 50/50/50
f 53/53/53 51/51/51 54/54/54
f 50/50/50 55/55/55 52/52/52
f 55/55/55 50/50/50 53/53/53
f 54/54/54 56/56/56 53/53/53
f 56/56/56 54/54/54 57/57/57
f 55/55/55 53/53/53 58/58/58
f 56/56/56 58/58/58 53/53/53
f 59/59/59 52/52/52 55/55/55
f 58/58/58 59/59/59 55/55/55
f 56/56/56 57/57/57 60/60/60
f 61/61/61 60/60/60 57/57/57
f 62/62/62 60/60/60 61/61/61
f 56/56/56 63/63/63 58/58/58
f 63/63/63 56/56/56 60/60/60
f 60/60/60 62/62/62 64/64/64
f 64/64/64 63/63/63 60/60/60
f 62/62/62 65/65/65 64/64/64
f 65/65/65 62/62/62 66/66/66
f 65/65/65 66/66/66 67/67/67
f 63/63/63 64/64/64 68/68/68
f 69/69/69 64/64/64 65/65/65
f 64/64/64 69/69/69 68/68/68
f 67/67/67 70/70/70 65/65/65
f 70/70/70 69/69/69 65/65/65
f 67/67/67 71/71/71 70/70/70
f 71/71/71 67/67/67 72/72/72
f 69/69/69 70/70/70 73/73/73
f 72/72/72 74/74/74 71/71/71
f 74/74/74 72/72/72 75/75/75
f 70/70/70 71/71/71 76/76/76
f 76/76/76 73/73/73 70/70/70
f 77/77/77 71/71/71 74/74/74
f 71/71/71 77/77/77 76/76/76
f 75/75/75 78/78/78 74/74/74
f 78/78/78 75/75/75 79/79/79
f 80/80/80 78/78/78 79/79/79
f 74/74/74 81/81/81 77/77/77
f 74/74/74 78/78/78 81/81/81
f 78/78/78 80/80/80 82/82/82
f 78/78/78 83/83/83 81/81/81
f 83/83/83 78/78/78 82/82/82
f 80/80/80 84/84/84 82/82/82
f 84/84/84 80/80/80 85/85/85
f 82/82/82 86/86/86 83/83/83
f 86/86/86 82/82/82 84/84/84
f 87/87/87 81/81/81 83/83/83
f 85/85/85 88/88/88 84/84/84
f 88/88/88 85/85/85 89/89/89
f 81/81/81 87/87/87 90/90/90
f 90/90/90 77/77/77 81/81/81
f 91/91/91 88/88/88 89/89/89
f 89/89/89 92/92/92 91/91/91
f 77/77/77 90/90/90 93/93/93
f 93/93/93 76/76/76 77/77/77
f 91/91/91 94/94/94 88/88/88
f 95/95/95 88/88/88 94/94/94
f 88/88/88 95/95/95 84/84/84
f 94/94/94 91/91/91 96/96/96
f 97/97/97 84/84/84 95/95/95
f 86/86/86 84/84/84 97/97/97
f 98/98/98 97/97/97 95/95/95
f 99/99/99 96/96/96 91/91/91
f 99/99/99 91/91/91 92/92/92
f 96/96/96 99/99/99 100/100/100
f 92/92/92 101/101/101 99/99/99
f 102/102/102 100/100/100 99/99/99
f 103/103/103 99/99/99 101/101/101
f 99/99/99 103/103/103 102/102/102
f 97/97/97 98/98/98 104/104/104
f 97/97/97 104/104/104 105/105/105
f 105/105/105 86/86/86 97/97/97
f 98/98/98 106/106/106 104/104/104
f 106/106/106 98/98/98 107/107/107
f 108/108/108 106/106/106 107/107/107
f 104/104/104 109/109/109 105/105/105
f 109/109/109 104/104/104 106/106/106
f 108/108/108 110/110/110 106/106/106
f 108/108/108 111/111/111 110/110/110
f 110/110/110 111/111/111 112/112/112
f 113/113/113 106/106/106 110/110/110
f 112/112/112 113/113/113 110/110/110
f 109/109/109 106/106/106 113/113/113
f 114/114/114 113/113/113 112/112/112
f 109/109/109 115/115/115 105/105/105
f 113/113/113 114/114/114 116/116/116
f 86/86/86 105/105/105 117/117/117
f 105/105/105 115/115/115 117/117/117
f 117/117/117 83/83/83 86/86/86
f 83/83/83 117/117/117 87/87/87
f 116/116/116 114/114/114 118/118/118
f 119/119/119 118/118/118 114/114/114
f 119/119/119 120/120/120 118/118/118
f 120/120/120 119/119/119 121/121/121
f 122/122/122 120/120/120 121/121/121
f 123/123/123 116/116/116 118/118/118
f 120/120/120 123/123/123 118/118/118
f 122/122/122 124/124/124 120/120/120
f 123/123/123 120/120/120 124/124/124
f 122/122/122 125/125/125 124/124/124
f 116/116/116 123/123/123 126/126/126
f 126/126/126 113/113/113 116/116/116
f 124/124/124 127/127/127 123/123/123
f 127/127/127 124/124/124 125/125/125
f 123/123/123 128/128/128 126/126/126
f 128/128/128 123/123/123 127/127/127
f 113/113/113 126/126/126 129/129/129
f 109/109/109 113/113/113 129/129/129
f 126/126/126 128/128/128 130/130/130
f 129/129/129 126/126/126 130/130/130
f 129/129/129 131/131/131 109/109/109
f 131/131/131 129/129/129 130/130/130
f 115/115/115 109/109/109 131/131/131
f 132/132/132 131/131/131 130/130/130
f 115/115/115 131/131/131 133/133/133
f 131/131/131 132/132/132 133/133/133
f 134/134/134 130/130/130 128/128/128
f 134/134/134 132/132/132 130/130/130
f 133/133/133 135/135/135 115/115/115
f 135/135/135 117/117/117 115/115/115
f 136/136/136 133/133/133 132/132/132
f 132/132/132 134/134/134 136/136/136
f 137/137/137 135/135/135 133/133/133
f 133/133/133 136/136/136 137/137/137
f 117/117/117 135/135/135 138/138/138
f 87/87/87 117/117/117 138/138/138
f 135/135/135 137/137/137 139/139/139
f 138/138/138 135/135/135 139/139/139
f 87/87/87 138/138/138 140/140/140
f 140/140/140 90/90/90 87/87/87
f 138/138/138 139/139/139 141/141/141
f 141/141/141 140/140/140 138/138/138
f 137/137/137 142/142/142 139/139/139
f 90/90/90 140/140/140 143/143/143
f 93/93/93 90/90/90 143/143/143
f 140/140/140 141/141/141 144/144/144
f 144/144/144 143/143/143 140/140/140
f 139/139/139 145/145/145 141/141/141
f 145/145/145 139/139/139 142/142/142
f 144/144/144 141/141/141 146/146/146
f 141/141/141 145/145/145 146/146/146
f 143/143/143 144/144/144 147/147/147
f 147/147/147 144/144/144 146/146/146
f 93/93/93 143/143/143 148/148/148
f 147/147/147 148/148/148 143/143/143
f 148/148/148 149/149/149 93/93/93
f 76/76/76 93/93/93 149/149/149
f 73/73/73 76/76/76 149/149/149
f 148/148/148 147/147/147 150/150/150
f 149/149/149 148/148/148 151/151/151
f 150/150/150 151/151/151 148/148/148
f 73/73/73 149/149/149 152/152/152
f 152/152/152 149/149/149 151/151/151
f 153/153/153 150/150/150 147/147/147
f 146/146/146 153/153/153 147/147/147
f 154/154/154 73/73/73 152/152/152
f 73/73/73 154/154/154 69/69/69
f 69/69/69 154/154/154 68/68/68
f 68/68/68 154/154/154 155/155/155
f 68/68/68 155/155/155 63/63/63
f 152/152/152 156/156/156 154/154/154
f 156/156/156 155/155/155 154/154/154
f 63/63/63 155/155/155 157/157/157
f 63/63/63 157/157/157 58/58/58
f 58/58/58 157/157/157 59/59/59
f 155/155/155 158/158/158 157/157/157
f 155/155/155 156/156/156 158/158/158
f 159/159/159 59/59/59 157/157/157
f 157/157/157 158/158/158 159/159/159
f 152/152/152 160/160/160 156/156/156
f 151/151/151 160/160/160 152/152/152
f 161/161/161 158/158/158 156/156/156
f 161/161/161 156/156/156 160/160/160
f 160/160/160 151/151/151 162/162/162
f 151/151/151 150/150/150 162/162/162
f 160/160/160 163/163/163 161/161/161
f 160/160/160 162/162/162 163/163/163
f 162/162/162 150/150/150 164/164/164
f 150/150/150 153/153/153 164/164/164
f 165/165/165 163/163/163 162/162/162
f 164/164/164 165/165/165 162/162/162
f 166/166/166 161/161/161 163/163/163
f 163/163/163 165/165/165 166/166/166
f 158/158/158 161/161/161 167/167/167
f 158/158/158 167/167/167 159/159/159
f 161/161/161 166/166/166 168/168/168
f 168/168/168 167/167/167 161/161/161
f 166/166/166 169/169/169 168/168/168
f 167/167/167 168/168/168 170/170/170
f 170/170/170 168/168/168 169/169/169
f 169/169/169 166/166/166 171/171/171
f 165/165/165 171/171/171 166/166/166
f 169/169/169 172/172/172 170/170/170
f 171/171/171 165/165/165 173/173/173
f 171/171/171 174/174/174 169/169/169
f 169/169/169 174/174/174 172/172/172
f 173/173/173 175/175/175 171/171/171
f 174/174/174 171/171/171 175/175/175
f 176/176/176 173/173/173 165/165/165
f 165/165/165 164/164/164 176/176/176
f 175/175/175 173/173/173 177/177/177
f 173/173/173 176/176/176 177/177/177
f 174/174/174 175/175/175 178/178/178
f 179/179/179 176/176/176 164/164/164
f 164/164/164 153/153/153 179/179/179
f 180/180/180 174/174/174 178/178/178
f 180/180/180 172/172/172 174/174/174
f 181/181/181 178/178/178 175/175/175
f 177/177/177 181/181/181 175/175/175
f 180/180/180 178/178/178 182/182/182
f 182/182/182 178/178/178 181/181/181
f 172/172/172 180/180/180 183/183/183
f 184/184/184 180/180/180 182/182/182
f 184/184/184 183/183/183 180/180/180
f 181/181/181 185/185/185 182/182/182
f 185/185/185 184/184/184 182/182/182
f 183/183/183 186/186/186 172/172/172
f 186/186/186 170/170/170 172/172/172
f 183/183/183 184/184/184 187/187/187
f 188/188/188 170/170/170 186/186/186
f 189/189/189 187/187/187 184/184/184
f 184/184/184 185/185/185 189/189/189
f 188/188/188 190/190/190 170/170/170
f 190/190/190 167/167/167 170/170/170
f 186/186/186 191/191/191 188/188/188
f 192/192/192 167/167/167 190/190/190
f 159/159/159 167/167/167 192/192/192
f 193/193/193 191/191/191 186/186/186
f 186/186/186 183/183/183 193/193/193
f 159/159/159 192/192/192 194/194/194
f 59/59/59 159/159/159 194/194/194
f 52/52/52 59/59/59 194/194/194
f 194/194/194 49/49/49 52/52/52
f 49/49/49 194/194/194 195/195/195
f 194/194/194 192/192/192 195/195/195
f 49/49/49 195/195/195 46/46/46
f 192/192/192 196/196/196 195/195/195
f 196/196/196 46/46/46 195/195/195
f 192/192/192 190/190/190 196/196/196
f 196/196/196 43/43/43 46/46/46
f 43/43/43 196/196/196 197/197/197
f 190/190/190 197/197/197 196/196/196
f 41/41/41 43/43/43 197/197/197
f 197/197/197 198/198/198 41/41/41
f 198/198/198 42/42/42 41/41/41
f 42/42/42 198/198/198 199/199/199
f 197/197/197 190/190/190 200/200/200
f 197/197/197 200/200/200 198/198/198
f 201/201/201 199/199/199 198/198/198
f 198/198/198 200/200/200 201/201/201
f 199/199/199 201/201/201 202/202/202
f 201/201/201 203/203/203 202/202/202
f 200/200/200 203/203/203 201/201/201
f 202/202/202 203/203/203 204/204/204
f 205/205/205 204/204/204 203/203/203
f 205/205/205 203/203/203 206/206/206
f 207/207/207 200/200/200 190/190/190
f 190/190/190 188/188/188 207/207/207
f 203/203/203 200/200/200 208/208/208
f 207/207/207 188/188/188 209/209/209
f 191/191/191 209/209/209 188/188/188
f 210/210/210 200/200/200 207/207/207
f 207/207/207 209/209/209 210/210/210
f 210/210/210 208/208/208 200/200/200
f 203/203/203 211/211/211 206/206/206
f 211/211/211 203/203/203 208/208/208
f 211/211/211 212/212/212 206/206/206
f 212/212/212 211/211/211 213/213/213
f 208/208/208 210/210/210 214/214/214
f 214/214/214 211/211/211 208/208/208
f 215/215/215 213/213/213 211/211/211
f 215/215/215 211/211/211 214/214/214
f 216/216/216 213/213/213 215/215/215
f 210/210/210 217/217/217 214/214/214
f 217/217/217 215/215/215 214/214/214
f 217/217/217 210/210/210 209/209/209
f 218/218/218 216/216/216 215/215/215
f 218/218/218 215/215/215 217/217/217
f 219/219/219 216/216/216 218/218/218
f 220/220/220 217/217/217 209/209/209
f 220/220/220 209/209/209 191/191/191
f 221/221/221 218/218/218 217/217/217
f 217/217/217 220/220/220 221/221/221
f 222/222/222 219/219/219 218/218/218
f 222/222/222 218/218/218 221/221/221
f 223/223/223 219/219/219 222/222/222
f 224/224/224 222/222/222 221/221/221
f 224/224/224 221/221/221 220/220/220
f 225/225/225 223/223/223 222/222/222
f 225/225/225 222/222/222 224/224/224
f 226/226/226 223/223/223 225/225/225
f 225/225/225 227/227/227 226/226/226
f 227/227/227 225/225/225 228/228/228
f 224/224/224 228/228/228 225/225/225
f 228/228/228 229/229/229 227/227/227
f 228/228/228 224/224/224 230/230/230
f 224/224/224 220/220/220 230/230/230
f 229/229/229 228/228/228 231/231/231
f 230/230/230 231/231/231 228/228/228
f 189/189/189 229/229/229 231/231/231
f 229/229/229 189/189/189 232/232/232
f 187/187/187 189/189/189 231/231/231
f 231/231/231 230/230/230 187/187/187
f 230/230/230 183/183/183 187/187/187
f 183/183/183 230/230/230 193/193/193
f 232/232/232 189/189/189 233/233/233
f 230/230/230 234/234/234 193/193/193
f 230/230/230 220/220/220 234/234/234
f 191/191/191 193/193/193 234/234/234
f 234/234/234 220/220/220 191/191/191
f 235/235/235 232/232/232 233/233/233
f 233/233/233 189/189/189 185/185/185
f 236/236/236 235/235/235 233/233/233
f 235/235/235 236/236/236 237/237/237
f 185/185/185 238/238/238 233/233/233
f 233/233/233 238/238/238 236/236/236
f 185/185/185 181/181/181 238/238/238
f 239/239/239 237/237/237 236/236/236
f 240/240/240 237/237/237 239/239/239
f 241/241/241 236/236/236 238/238/238
f 236/236/236 241/241/241 239/239/239
f 238/238/238 181/181/181 242/242/242
f 238/238/238 242/242/242 241/241/241
f 181/181/181 177/177/177 242/242/242
f 243/243/243 240/240/240 239/239/239
f 244/244/244 240/240/240 243/243/243
f 245/245/245 239/239/239 241/241/241
f 239/239/239 245/245/245 243/243/243
f 246/246/246 241/241/241 242/242/242
f 241/241/241 246/246/246 245/245/245
f 247/247/247 242/242/242 177/177/177
f 242/242/242 247/247/247 246/246/246
f 247/247/247 177/177/177 176/176/176
f 176/176/176 179/179/179 247/247/247
f 248/248/248 245/245/245 246/246/246
f 247/247/247 248/248/248 246/246/246
f 249/249/249 243/243/243 245/245/245
f 245/245/245 248/248/248 249/249/249
f 250/250/250 244/244/244 243/243/243
f 243/243/243 249/249/249 250/250/250
f 251/251/251 244/244/244 250/250/250
f 248/248/248 247/247/247 252/252/252
f 179/179/179 252/252/252 247/247/247
f 253/253/253 251/251/251 250/250/250
f 254/254/254 251/251/251 253/253/253
f 252/252/252 179/179/179 255/255/255
f 153/153/153 255/255/255 179/179/179
f 255/255/255 153/153/153 146/146/146
f 256/256/256 255/255/255 146/146/146
f 256/256/256 252/252/252 255/255/255
f 145/145/145 256/256/256 146/146/146
f 252/252/252 257/257/257 248/248/248
f 248/248/248 257/257/257 249/249/249
f 256/256/256 258/258/258 252/252/252
f 257/257/257 252/252/252 258/258/258
f 256/256/256 145/145/145 259/259/259
f 258/258/258 256/256/256 259/259/259
f 260/260/260 259/259/259 145/145/145
f 258/258/258 259/259/259 260/260/260
f 260/260/260 145/145/145 142/142/142
f 260/260/260 142/142/142 137/137/137
f 136/136/136 260/260/260 137/137/137
f 260/260/260 136/136/136 134/134/134
f 261/261/261 258/258/258 260/260/260
f 258/258/258 261/261/261 257/257/257
f 260/260/260 134/134/134 262/262/262
f 260/260/260 262/262/262 261/261/261
f 261/261/261 263/263/263 257/257/257
f 249/249/249 257/257/257 263/263/263
f 263/263/263 250/250/250 249/249/249
f 250/250/250 263/263/263 253/253/253
f 263/263/263 261/261/261 264/264/264
f 264/264/264 253/253/253 263/263/263
f 261/261/261 262/262/262 264/264/264
f 253/253/253 264/264/264 265/265/265
f 265/265/265 254/254/254 253/253/253
f 266/266/266 254/254/254 265/265/265
f 265/265/265 267/267/267 266/266/266
f 264/264/264 262/262/262 268/268/268
f 264/264/264 268/268/268 265/265/265
f 267/267/267 265/265/265 269/269/269
f 269/269/269 265/265/265 268/268/268
f 269/269/269 270/270/270 267/267/267
f 271/271/271 268/268/268 262/262/262
f 134/134/134 271/271/271 262/262/262
f 128/128/128 271/271/271 134/134/134
f 128/128/128 127/127/127 271/271/271
f 268/268/268 271/271/271 272/272/272
f 272/272/272 269/269/269 268/268/268
f 273/273/273 271/271/271 127/127/127
f 271/271/271 273/273/273 272/272/272
f 274/274/274 269/269/269 272/272/272
f 274/274/274 272/272/272 273/273/273
f 275/275/275 269/269/269 274/274/274
f 270/270/270 269/269/269 275/275/275
f 276/276/276 274/274/274 273/273/273
f 274/274/274 276/276/276 275/275/275
f 127/127/127 276/276/276 273/273/273
f 276/276/276 270/270/270 275/275/275
f 125/125/125 276/276/276 127/127/127
f 270/270/270 276/276/276 277/277/277
f 276/276/276 125/125/125 278/278/278
f 277/277/277 276/276/276 278/278/278
f 122/122/122 278/278/278 125/125/125
f 279/279/279 277/277/277 278/278/278
f 122/122/122 279/279/279 278/278/278
f 280/280/280 281/281/281 282/282/282
f 281/281/281 280/280/280 283/283/283
f 283/283/283 284/284/284 281/281/281
f 280/280/280 285/285/285 283/283/283
f 285/285/285 280/280/280 286/286/286
f 284/284/284 283/283/283 287/287/287
f 285/285/285 287/287/287 283/283/283
f 286/286/286 288/288/288 285/285/285
f 288/288/288 286/286/286 289/289/289
f 287/287/287 285/285/285 290/290/290
f 288/288/288 290/290/290 285/285/285
f 284/284/284 287/287/287 291/291/291
f 284/284/284 291/291/291 292/292/292
f 293/293/293 287/287/287 290/290/290
f 287/287/287 293/293/293 291/291/291
f 294/294/294 292/292/292 291/291/291
f 292/292/292 294/294/294 295/295/295
f 296/296/296 291/291/291 293/293/293
f 291/291/291 296/296/296 294/294/294
f 297/297/297 295/295/295 294/294/294
f 295/295/295 297/297/297 298/298/298
f 299/299/299 294/294/294 296/296/296
f 294/294/294 299/299/299 297/297/297
f 298/298/298 297/297/297 300/300/300
f 298/298/298 300/300/300 301/301/301
f 302/302/302 297/297/297 299/299/299
f 297/297/297 302/302/302 300/300/300
f 303/303/303 301/301/301 300/300/300
f 301/301/301 303/303/303 304/304/304
f 305/305/305 300/300/300 302/302/302
f 300/300/300 305/305/305 303/303/303
f 302/302/302 299/299/299 306/306/306
f 305/305/305 302/302/302 306/306/306
f 304/304/304 303/303/303 307/307/307
f 307/307/307 308/308/308 304/304/304
f 308/308/308 307/307/307 309/309/309
f 310/310/310 303/303/303 305/305/305
f 303/303/303 310/310/310 307/307/307
f 307/307/307 311/311/311 309/309/309
f 307/307/307 310/310/310 311/311/311
f 309/309/309 311/311/311 312/312/312
f 309/309/309 312/312/312 313/313/313
f 313/313/313 312/312/312 314/314/314
f 315/315/315 311/311/311 310/310/310
f 311/311/311 316/316/316 312/312/312
f 316/316/316 311/311/311 315/315/315
f 317/317/317 314/314/314 312/312/312
f 316/316/316 317/317/317 312/312/312
f 314/314/314 317/317/317 318/318/318
f 314/314/314 318/318/318 319/319/319
f 317/317/317 316/316/316 320/320/320
f 319/319/319 318/318/318 321/321/321
f 319/319/319 321/321/321 322/322/322
f 317/317/317 323/323/323 318/318/318
f 323/323/323 317/317/317 320/320/320
f 318/318/318 324/324/324 321/321/321
f 324/324/324 318/318/318 323/323/323
f 322/322/322 321/321/321 325/325/325
f 322/322/322 325/325/325 326/326/326
f 325/325/325 327/327/327 326/326/326
f 324/324/324 328/328/328 321/321/321
f 321/321/321 328/328/328 325/325/325
f 327/327/327 325/325/325 329/329/329
f 330/330/330 325/325/325 328/328/328
f 325/325/325 330/330/330 329/329/329
f 331/331/331 327/327/327 329/329/329
f 327/327/327 331/331/331 332/332/332
f 330/330/330 333/333/333 329/329/329
f 333/333/333 331/331/331 329/329/329
f 334/334/334 330/330/330 328/328/328
f 335/335/335 332/332/332 331/331/331
f 332/332/332 335/335/335 336/336/336
f 337/337/337 334/334/334 328/328/328
f 324/324/324 337/337/337 328/328/328
f 335/335/335 338/338/338 336/336/336
f 336/336/336 338/338/338 339/339/339
f 340/340/340 337/337/337 324/324/324
f 323/323/323 340/340/340 324/324/324
f 341/341/341 338/338/338 335/335/335
f 335/335/335 342/342/342 341/341/341
f 342/342/342 335/335/335 331/331/331
f 338/338/338 341/341/341 343/343/343
f 344/344/344 342/342/342 331/331/331
f 333/333/333 344/344/344 331/331/331
f 344/344/344 345/345/345 342/342/342
f 343/343/343 346/346/346 338/338/338
f 338/338/338 346/346/346 339/339/339
f 346/346/346 343/343/343 347/347/347
f 348/348/348 339/339/339 346/346/346
f 347/347/347 349/349/349 346/346/346
f 350/350/350 348/348/348 346/346/346
f 350/350/350 346/346/346 349/349/349
f 345/345/345 344/344/344 351/351/351
f 344/344/344 352/352/352 351/351/351
f 352/352/352 344/344/344 333/333/333
f 353/353/353 345/345/345 351/351/351
f 345/345/345 353/353/353 354/354/354
f 355/355/355 354/354/354 353/353/353
f 356/356/356 351/351/351 352/352/352
f 351/351/351 356/356/356 353/353/353
f 355/355/355 353/353/353 357/357/357
f 355/355/355 357/357/357 358/358/358
f 357/357/357 359/359/359 358/358/358
f 360/360/360 357/357/357 353/353/353
f 360/360/360 359/359/359 357/357/357
f 356/356/356 360/360/360 353/353/353
f 360/360/360 361/361/361 359/359/359
f 362/362/362 356/356/356 352/352/352
f 361/361/361 360/360/360 363/363/363
f 352/352/352 364/364/364 362/362/362
f 364/364/364 352/352/352 333/333/333
f 330/330/330 364/364/364 333/333/333
f 364/364/364 330/330/330 334/334/334
f 361/361/361 363/363/363 365/365/365
f 366/366/366 361/361/361 365/365/365
f 334/334/334 367/367/367 364/364/364
f 368/368/368 366/366/366 365/365/365
f 366/366/366 368/368/368 369/369/369
f 370/370/370 369/369/369 368/368/368
f 368/368/368 365/365/365 371/371/371
f 363/363/363 371/371/371 365/365/365
f 370/370/370 368/368/368 372/372/372
f 368/368/368 371/371/371 372/372/372
f 370/370/370 372/372/372 373/373/373
f 371/371/371 363/363/363 374/374/374
f 360/360/360 374/374/374 363/363/363
f 375/375/375 372/372/372 371/371/371
f 372/372/372 375/375/375 373/373/373
f 360/360/360 376/376/376 374/374/374
f 360/360/360 356/356/356 376/376/376
f 377/377/377 371/371/371 374/374/374
f 371/371/371 377/377/377 375/375/375
f 376/376/376 378/378/378 374/374/374
f 374/374/374 378/378/378 377/377/377
f 379/379/379 376/376/376 356/356/356
f 376/376/376 379/379/379 378/378/378
f 356/356/356 362/362/362 379/379/379
f 379/379/379 380/380/380 378/378/378
f 362/362/362 381/381/381 379/379/379
f 380/380/380 379/379/379 381/381/381
f 382/382/382 377/377/377 378/378/378
f 382/382/382 378/378/378 380/380/380
f 381/381/381 362/362/362 383/383/383
f 364/364/364 383/383/383 362/362/362
f 383/383/383 364/364/364 367/367/367
f 380/380/380 381/381/381 384/384/384
f 380/380/380 384/384/384 382/382/382
f 381/381/381 383/383/383 385/385/385
f 381/381/381 385/385/385 384/384/384
f 367/367/367 386/386/386 383/383/383
f 383/383/383 386/386/386 385/385/385
f 384/384/384 385/385/385 387/387/387
f 387/387/387 382/382/382 384/384/384
f 385/385/385 386/386/386 388/388/388
f 385/385/385 388/388/388 387/387/387
f 389/389/389 388/388/388 386/386/386
f 387/387/387 388/388/388 389/389/389
f 386/386/386 367/367/367 390/390/390
f 386/386/386 390/390/390 389/389/389
f 391/391/391 390/390/390 367/367/367
f 391/391/391 367/367/367 334/334/334
f 337/337/337 391/391/391 334/334/334
f 390/390/390 391/391/391 392/392/392
f 391/391/391 337/337/337 393/393/393
f 393/393/393 392/392/392 391/391/391
f 340/340/340 393/393/393 337/337/337
f 394/394/394 390/390/390 392/392/392
f 394/394/394 389/389/389 390/390/390
f 392/392/392 393/393/393 395/395/395
f 395/395/395 394/394/394 392/392/392
f 396/396/396 393/393/393 340/340/340
f 396/396/396 395/395/395 393/393/393
f 397/397/397 396/396/396 340/340/340
f 340/340/340 323/323/323 397/397/397
f 320/320/320 397/397/397 323/323/323
f 398/398/398 395/395/395 396/396/396
f 396/396/396 397/397/397 399/399/399
f 399/399/399 398/398/398 396/396/396
f 397/397/397 320/320/320 400/400/400
f 400/400/400 399/399/399 397/397/397
f 398/398/398 401/401/401 395/395/395
f 401/401/401 394/394/394 395/395/395
f 398/398/398 399/399/399 402/402/402
f 401/401/401 403/403/403 394/394/394
f 401/401/401 398/398/398 404/404/404
f 398/398/398 402/402/402 404/404/404
f 403/403/403 401/401/401 405/405/405
f 404/404/404 405/405/405 401/401/401
f 406/406/406 394/394/394 403/403/403
f 406/406/406 389/389/389 394/394/394
f 405/405/405 407/407/407 403/403/403
f 406/406/406 403/403/403 407/407/407
f 389/389/389 406/406/406 408/408/408
f 387/387/387 389/389/389 408/408/408
f 406/406/406 409/409/409 408/408/408
f 409/409/409 387/387/387 408/408/408
f 409/409/409 406/406/406 407/407/407
f 409/409/409 410/410/410 387/387/387
f 407/407/407 411/411/411 409/409/409
f 410/410/410 409/409/409 411/411/411
f 387/387/387 410/410/410 412/412/412
f 387/387/387 412/412/412 382/382/382
f 413/413/413 410/410/410 411/411/411
f 382/382/382 412/412/412 414/414/414
f 377/377/377 382/382/382 414/414/414
f 377/377/377 414/414/414 375/375/375
f 415/415/415 412/412/412 410/410/410
f 410/410/410 413/413/413 415/415/415
f 416/416/416 414/414/414 412/412/412
f 415/415/415 416/416/416 412/412/412
f 414/414/414 417/417/417 375/375/375
f 414/414/414 416/416/416 418/418/418
f 417/417/417 414/414/414 418/418/418
f 419/419/419 375/375/375 417/417/417
f 375/375/375 419/419/419 373/373/373
f 420/420/420 417/417/417 418/418/418
f 420/420/420 419/419/419 417/417/417
f 418/418/418 416/416/416 421/421/421
f 418/418/418 421/421/421 420/420/420
f 416/416/416 415/415/415 422/422/422
f 422/422/422 421/421/421 416/416/416
f 423/423/423 420/420/420 421/421/421
f 419/419/419 420/420/420 423/423/423
f 421/421/421 424/424/424 423/423/423
f 424/424/424 419/419/419 423/423/423
f 424/424/424 421/421/421 425/425/425
f 422/422/422 425/425/425 421/421/421
f 419/419/419 424/424/424 426/426/426
f 425/425/425 422/422/422 427/427/427
f 428/428/428 427/427/427 422/422/422
f 426/426/426 429/429/429 419/419/419
f 373/373/373 419/419/419 429/429/429
f 429/429/429 426/426/426 430/430/430
f 370/370/370 373/373/373 429/429/429
f 370/370/370 429/429/429 430/430/430
f 422/422/422 431/431/431 428/428/428
f 415/415/415 431/431/431 422/422/422
f 432/432/432 428/428/428 431/431/431
f 431/431/431 415/415/415 413/413/413
f 431/431/431 433/433/433 432/432/432
f 413/413/413 433/433/433 431/431/431
f 434/434/434 432/432/432 433/433/433
f 433/433/433 413/413/413 435/435/435
f 435/435/435 413/413/413 411/411/411
f 433/433/433 436/436/436 434/434/434
f 435/435/435 436/436/436 433/433/433
f 437/437/437 434/434/434 436/436/436
f 435/435/435 411/411/411 438/438/438
f 411/411/411 407/407/407 438/438/438
f 436/436/436 435/435/435 439/439/439
f 438/438/438 439/439/439 435/435/435
f 436/436/436 440/440/440 437/437/437
f 439/439/439 440/440/440 436/436/436
f 441/441/441 437/437/437 440/440/440
f 439/439/439 438/438/438 442/442/442
f 440/440/440 443/443/443 441/441/441
f 443/443/443 444/444/444 441/441/441
f 440/440/440 439/439/439 445/445/445
f 445/445/445 443/443/443 440/440/440
f 442/442/442 445/445/445 439/439/439
f 444/444/444 443/443/443 446/446/446
f 446/446/446 447/447/447 444/444/444
f 443/443/443 445/445/445 448/448/448
f 446/446/446 443/443/443 448/448/448
f 445/445/445 442/442/442 449/449/449
f 448/448/448 445/445/445 449/449/449
f 438/438/438 450/450/450 442/442/442
f 450/450/450 449/449/449 442/442/442
f 450/450/450 438/438/438 407/407/407
f 405/405/405 450/450/450 407/407/407
f 451/451/451 450/450/450 405/405/405
f 451/451/451 405/405/405 404/404/404
f 449/449/449 450/450/450 452/452/452
f 450/450/450 451/451/451 452/452/452
f 448/448/448 449/449/449 453/453/453
f 452/452/452 453/453/453 449/449/449
f 404/404/404 454/454/454 451/451/451
f 454/454/454 404/404/404 402/402/402
f 455/455/455 452/452/452 451/451/451
f 455/455/455 451/451/451 454/454/454
f 455/455/455 456/456/456 452/452/452
f 453/453/453 452/452/452 456/456/456
f 457/457/457 455/455/455 454/454/454
f 456/456/456 455/455/455 457/457/457
f 458/458/458 454/454/454 402/402/402
f 459/459/459 453/453/453 456/456/456
f 454/454/454 458/458/458 460/460/460
f 454/454/454 460/460/460 457/457/457
f 458/458/458 402/402/402 461/461/461
f 461/461/461 402/402/402 399/399/399
f 461/461/461 399/399/399 400/400/400
f 461/461/461 462/462/462 458/458/458
f 460/460/460 458/458/458 462/462/462
f 400/400/400 463/463/463 461/461/461
f 463/463/463 462/462/462 461/461/461
f 464/464/464 463/463/463 400/400/400
f 320/320/320 464/464/464 400/400/400
f 464/464/464 320/320/320 316/316/316
f 464/464/464 316/316/316 315/315/315
f 315/315/315 465/465/465 464/464/464
f 463/463/463 464/464/464 465/465/465
f 310/310/310 465/465/465 315/315/315
f 465/465/465 466/466/466 463/463/463
f 466/466/466 462/462/462 463/463/463
f 310/310/310 467/467/467 465/465/465
f 466/466/466 465/465/465 467/467/467
f 467/467/467 310/310/310 305/305/305
f 305/305/305 306/306/306 467/467/467
f 467/467/467 468/468/468 466/466/466
f 468/468/468 467/467/467 306/306/306
f 462/462/462 466/466/466 469/469/469
f 469/469/469 466/466/466 468/468/468
f 306/306/306 470/470/470 468/468/468
f 299/299/299 470/470/470 306/306/306
f 296/296/296 470/470/470 299/299/299
f 471/471/471 468/468/468 470/470/470
f 468/468/468 471/471/471 469/469/469
f 296/296/296 472/472/472 470/470/470
f 471/471/471 470/470/470 472/472/472
f 293/293/293 472/472/472 296/296/296
f 293/293/293 473/473/473 472/472/472
f 473/473/473 471/471/471 472/472/472
f 290/290/290 473/473/473 293/293/293
f 474/474/474 471/471/471 473/473/473
f 471/471/471 474/474/474 469/469/469
f 473/473/473 290/290/290 475/475/475
f 475/475/475 474/474/474 473/473/473
f 290/290/290 288/288/288 475/475/475
f 475/475/475 288/288/288 476/476/476
f 289/289/289 476/476/476 288/288/288
f 476/476/476 289/289/289 477/477/477
f 476/476/476 478/478/478 475/475/475
f 474/474/474 475/475/475 478/478/478
f 477/477/477 479/479/479 476/476/476
f 478/478/478 476/476/476 479/479/479
f 479/479/479 477/477/477 480/480/480
f 479/479/479 480/480/480 481/481/481
f 481/481/481 478/478/478 479/479/479
f 480/480/480 482/482/482 481/481/481
f 483/483/483 481/481/481 482/482/482
f 483/483/483 484/484/484 481/481/481
f 485/485/485 481/481/481 484/484/484
f 486/486/486 485/485/485 484/484/484
f 485/485/485 486/486/486 487/487/487
f 478/478/478 481/481/481 488/488/488
f 481/481/481 485/485/485 488/488/488
f 487/487/487 489/489/489 485/485/485
f 489/489/489 487/487/487 490/490/490
f 485/485/485 491/491/491 488/488/488
f 491/491/491 485/485/485 489/489/489
f 492/492/492 478/478/478 488/488/488
f 492/492/492 488/488/488 491/491/491
f 493/493/493 489/489/489 490/490/490
f 494/494/494 493/493/493 490/490/490
f 495/495/495 491/491/491 489/489/489
f 493/493/493 495/495/495 489/489/489
f 492/492/492 491/491/491 495/495/495
f 496/496/496 493/493/493 494/494/494
f 497/497/497 496/496/496 494/494/494
f 498/498/498 495/495/495 493/493/493
f 496/496/496 498/498/498 493/493/493
f 499/499/499 496/496/496 497/497/497
f 500/500/500 499/499/499 497/497/497
f 501/501/501 499/499/499 500/500/500
f 502/502/502 498/498/498 496/496/496
f 496/496/496 499/499/499 502/502/502
f 499/499/499 501/501/501 503/503/503
f 503/503/503 502/502/502 499/499/499
f 504/504/504 503/503/503 501/501/501
f 502/502/502 505/505/505 498/498/498
f 505/505/505 495/495/495 498/498/498
f 502/502/502 503/503/503 506/506/506
f 506/506/506 505/505/505 502/502/502
f 504/504/504 507/507/507 503/503/503
f 507/507/507 506/506/506 503/503/503
f 504/504/504 508/508/508 507/507/507
f 508/508/508 504/504/504 447/447/447
f 447/447/447 446/446/446 508/508/508
f 506/506/506 507/507/507 509/509/509
f 507/507/507 508/508/508 509/509/509
f 446/446/446 510/510/510 508/508/508
f 448/448/448 510/510/510 446/446/446
f 453/453/453 510/510/510 448/448/448
f 508/508/508 511/511/511 509/509/509
f 508/508/508 510/510/510 511/511/511
f 510/510/510 453/453/453 512/512/512
f 510/510/510 512/512/512 511/511/511
f 453/453/453 459/459/459 512/512/512
f 511/511/511 513/513/513 509/509/509
f 506/506/506 509/509/509 513/513/513
f 511/511/511 512/512/512 514/514/514
f 514/514/514 512/512/512 459/459/459
f 513/513/513 511/511/511 514/514/514
f 514/514/514 459/459/459 515/515/515
f 515/515/515 459/459/459 456/456/456
f 515/515/515 456/456/456 457/457/457
f 516/516/516 514/514/514 515/515/515
f 514/514/514 516/516/516 513/513/513
f 515/515/515 457/457/457 517/517/517
f 517/517/517 516/516/516 515/515/515
f 460/460/460 517/517/517 457/457/457
f 518/518/518 513/513/513 516/516/516
f 517/517/517 460/460/460 519/519/519
f 462/462/462 519/519/519 460/460/460
f 469/469/469 519/519/519 462/462/462
f 520/520/520 516/516/516 517/517/517
f 520/520/520 517/517/517 519/519/519
f 519/519/519 469/469/469 520/520/520
f 520/520/520 518/518/518 516/516/516
f 474/474/474 520/520/520 469/469/469
f 518/518/518 521/521/521 513/513/513
f 521/521/521 506/506/506 513/513/513
f 522/522/522 518/518/518 520/520/520
f 474/474/474 522/522/522 520/520/520
f 506/506/506 521/521/521 523/523/523
f 506/506/506 523/523/523 505/505/505
f 524/524/524 521/521/521 518/518/518
f 521/521/521 524/524/524 523/523/523
f 523/523/523 524/524/524 505/505/505
f 518/518/518 522/522/522 524/524/524
f 505/505/505 524/524/524 525/525/525
f 524/524/524 522/522/522 525/525/525
f 495/495/495 505/505/505 525/525/525
f 495/495/495 525/525/525 492/492/492
f 522/522/522 526/526/526 525/525/525
f 525/525/525 526/526/526 492/492/492
f 522/522/522 474/474/474 526/526/526
f 492/492/492 526/526/526 478/478/478
f 526/526/526 474/474/474 478/478/478
f 527/527/527 528/528/528 529/529/529
f 530/530/530 527/527/527 531/531/531
f 528/528/528 527/527/527 532/532/532
f 527/527/527 530/530/530 532/532/532
f 532/532/532 533/533/533 528/528/528
f 532/532/532 530/530/530 534/534/534
f 534/534/534 535/535/535 532/532/532
f 533/533/533 532/532/532 535/535/535
f 536/536/536 535/535/535 534/534/534
f 535/535/535 537/537/537 533/533/533
f 536/536/536 537/537/537 535/535/535
f 533/533/533 537/537/537 538/538/538
f 539/539/539 537/537/537 536/536/536
f 537/537/537 540/540/540 538/538/538
f 537/537/537 539/539/539 541/541/541
f 540/540/540 537/537/537 541/541/541
f 539/539/539 542/542/542 541/541/541
f 542/542/542 540/540/540 541/541/541
f 542/542/542 539/539/539 543/543/543
f 544/544/544 540/540/540 542/542/542
f 543/543/543 545/545/545 542/542/542
f 542/542/542 545/545/545 544/544/544
f 545/545/545 543/543/543 546/546/546
f 547/547/547 544/544/544 545/545/545
f 546/546/546 548/548/548 545/545/545
f 549/549/549 547/547/547 545/545/545
f 545/545/545 548/548/548 549/549/549
f 547/547/547 549/549/549 550/550/550
f 551/551/551 549/549/549 548/548/548
f 551/551/551 550/550/550 549/549/549
f 552/552/552 551/551/551 548/548/548
f 550/550/550 551/551/551 553/553/553
f 552/552/552 554/554/554 551/551/551
f 551/551/551 554/554/554 553/553/553
f 554/554/554 552/552/552 555/555/555
f 556/556/556 553/553/553 554/554/554
f 557/557/557 558/558/558 559/559/559
f 557/557/557 560/560/560 561/561/561
f 557/557/557 559/559/559 562/562/562
f 557/557/557 562/562/562 560/560/560
f 559/559/559 563/563/563 562/562/562
f 562/562/562 564/564/564 560/560/560
f 564/564/564 562/562/562 565/565/565
f 563/563/563 565/565/565 562/562/562
f 565/565/565 566/566/566 564/564/564
f 563/563/563 567/567/567 565/565/565
f 566/566/566 565/565/565 567/567/567
f 563/563/563 568/568/568 567/567/567
f 567/567/567 569/569/569 566/566/566
f 570/570/570 567/567/567 568/568/568
f 569/569/569 567/567/567 571/571/571
f 567/567/567 570/570/570 571/571/571
f 572/572/572 569/569/569 571/571/571
f 570/570/570 572/572/572 571/571/571
f 569/569/569 572/572/572 573/573/573
f 572/572/572 570/570/570 574/574/574
f 575/575/575 573/573/573 572/572/572
f 574/574/574 575/575/575 572/572/572
f 573/573/573 575/575/575 576/576/576
f 575/575/575 574/574/574 577/577/577
f 578/578/578 576/576/576 575/575/575
f 577/577/577 579/579/579 575/575/575
f 578/578/578 575/575/575 579/579/579
f 579/579/579 577/577/577 580/580/580
f 581/581/581 578/578/578 579/579/579
f 580/580/580 581/581/581 579/579/579
f 582/582/582 578/578/578 581/581/581
f 581/581/581 580/580/580 583/583/583
f 582/582/582 581/581/581 584/584/584
f 583/583/583 584/584/584 581/581/581
f 585/585/585 582/582/582 584/584/584
f 583/583/583 586/586/586 584/584/584
